<svg width="12" height="20" viewBox="0 0 12 20" fill="none" xmlns="http://www.w3.org/2000/svg">
<path d="M3.87052 19.9525C4.13509 20.0656 4.4427 19.9712 4.59724 19.7271L11.6285 8.55523C11.6845 8.46658 11.7156 8.36453 11.7187 8.25974C11.7219 8.15494 11.6968 8.05123 11.6462 7.95941C11.5956 7.86759 11.5213 7.79104 11.431 7.73772C11.3407 7.6844 11.2378 7.65628 11.1329 7.65628H6.44028L8.18552 0.730146C8.25591 0.450341 8.11341 0.161357 7.84849 0.0474897C7.58528 -0.0657916 7.27571 0.0291694 7.12177 0.272919L0.0905151 11.4448C0.0345402 11.5334 0.00337147 11.6355 0.000258456 11.7403C-0.00285456 11.8451 0.022202 11.9488 0.0728161 12.0406C0.12343 12.1324 0.197748 12.209 0.288022 12.2623C0.378296 12.3156 0.481219 12.3437 0.586062 12.3437H5.27872L3.53348 19.2699C3.46309 19.5497 3.60556 19.8387 3.87052 19.9525Z" fill="#0B328E"/>
</svg>
