<svg width="71" height="37" viewBox="0 0 71 37" fill="none" xmlns="http://www.w3.org/2000/svg">
<path d="M15.4755 12.7378C15.7761 12.6791 16.0658 12.6388 16.3445 12.6168C16.6231 12.5948 16.8945 12.5838 17.1585 12.5838C18.0018 12.5838 18.7461 12.7121 19.3915 12.9688C20.0368 13.2254 20.5795 13.5774 21.0195 14.0248C21.4595 14.4648 21.7895 14.9854 22.0095 15.5868C22.2368 16.1808 22.3505 16.8188 22.3505 17.5008C22.3505 18.3588 22.1965 19.1434 21.8885 19.8548C21.5878 20.5588 21.1661 21.1674 20.6235 21.6808C20.0808 22.1941 19.4318 22.5938 18.6765 22.8798C17.9285 23.1584 17.1071 23.2978 16.2125 23.2978C15.6918 23.2978 15.1931 23.2428 14.7165 23.1328C14.2471 23.0228 13.8035 22.8761 13.3855 22.6928C12.9748 22.5021 12.5935 22.2858 12.2415 22.0438C11.8895 21.7944 11.5705 21.5304 11.2845 21.2518L12.3405 19.8438C12.4505 19.6971 12.5788 19.5871 12.7255 19.5138C12.8721 19.4331 13.0298 19.3928 13.1985 19.3928C13.4185 19.3928 13.6238 19.4551 13.8145 19.5798C14.0125 19.6971 14.2251 19.8291 14.4525 19.9758C14.6871 20.1151 14.9585 20.2434 15.2665 20.3608C15.5745 20.4781 15.9558 20.5368 16.4105 20.5368C16.8651 20.5368 17.2538 20.4634 17.5765 20.3168C17.8991 20.1628 18.1595 19.9574 18.3575 19.7008C18.5628 19.4368 18.7095 19.1324 18.7975 18.7878C18.8928 18.4358 18.9405 18.0618 18.9405 17.6658C18.9405 16.8884 18.7205 16.2981 18.2805 15.8948C17.8405 15.4841 17.2171 15.2788 16.4105 15.2788C15.6918 15.2788 14.9878 15.4144 14.2985 15.6858L12.1865 15.1138L13.5505 7.09476H21.7565V8.50276C21.7565 8.73743 21.7198 8.9501 21.6465 9.14076C21.5731 9.33143 21.4558 9.5001 21.2945 9.64676C21.1405 9.7861 20.9351 9.8961 20.6785 9.97676C20.4218 10.0501 20.1138 10.0868 19.7545 10.0868H15.9265L15.4755 12.7378ZM35.6732 15.1028C35.6732 16.5034 35.5228 17.7171 35.2222 18.7438C34.9215 19.7704 34.5035 20.6211 33.9682 21.2958C33.4402 21.9704 32.8095 22.4728 32.0762 22.8028C31.3502 23.1328 30.5618 23.2978 29.7112 23.2978C28.8605 23.2978 28.0722 23.1328 27.3462 22.8028C26.6275 22.4728 26.0042 21.9704 25.4762 21.2958C24.9482 20.6211 24.5338 19.7704 24.2332 18.7438C23.9398 17.7171 23.7932 16.5034 23.7932 15.1028C23.7932 13.7021 23.9398 12.4884 24.2332 11.4618C24.5338 10.4351 24.9482 9.58443 25.4762 8.90976C26.0042 8.2351 26.6275 7.73643 27.3462 7.41376C28.0722 7.08376 28.8605 6.91876 29.7112 6.91876C30.5618 6.91876 31.3502 7.08376 32.0762 7.41376C32.8095 7.73643 33.4402 8.2351 33.9682 8.90976C34.5035 9.58443 34.9215 10.4351 35.2222 11.4618C35.5228 12.4884 35.6732 13.7021 35.6732 15.1028ZM32.1532 15.1028C32.1532 13.9954 32.0835 13.0898 31.9442 12.3858C31.8048 11.6744 31.6178 11.1171 31.3832 10.7138C31.1558 10.3104 30.8955 10.0354 30.6022 9.88876C30.3088 9.73476 30.0118 9.65776 29.7112 9.65776C29.4105 9.65776 29.1135 9.73476 28.8202 9.88876C28.5342 10.0354 28.2775 10.3104 28.0502 10.7138C27.8302 11.1171 27.6505 11.6744 27.5112 12.3858C27.3792 13.0898 27.3132 13.9954 27.3132 15.1028C27.3132 16.2174 27.3792 17.1268 27.5112 17.8308C27.6505 18.5348 27.8302 19.0921 28.0502 19.5028C28.2775 19.9061 28.5342 20.1848 28.8202 20.3388C29.1135 20.4854 29.4105 20.5588 29.7112 20.5588C30.0118 20.5588 30.3088 20.4854 30.6022 20.3388C30.8955 20.1848 31.1558 19.9061 31.3832 19.5028C31.6178 19.0921 31.8048 18.5348 31.9442 17.8308C32.0835 17.1268 32.1532 16.2174 32.1532 15.1028ZM44.5409 10.9778C44.5409 11.5644 44.4346 12.0998 44.2219 12.5838C44.0092 13.0678 43.7269 13.4858 43.3749 13.8378C43.0229 14.1824 42.6122 14.4501 42.1429 14.6408C41.6809 14.8314 41.1969 14.9268 40.6909 14.9268C40.1336 14.9268 39.6202 14.8314 39.1509 14.6408C38.6889 14.4501 38.2856 14.1824 37.9409 13.8378C37.6036 13.4858 37.3396 13.0678 37.1489 12.5838C36.9582 12.0998 36.8629 11.5644 36.8629 10.9778C36.8629 10.3691 36.9582 9.8191 37.1489 9.32776C37.3396 8.8291 37.6036 8.40376 37.9409 8.05176C38.2856 7.69976 38.6889 7.42843 39.1509 7.23776C39.6202 7.03976 40.1336 6.94076 40.6909 6.94076C41.2482 6.94076 41.7616 7.03976 42.2309 7.23776C42.7076 7.42843 43.1146 7.69976 43.4519 8.05176C43.7966 8.40376 44.0642 8.8291 44.2549 9.32776C44.4456 9.8191 44.5409 10.3691 44.5409 10.9778ZM41.9229 10.9778C41.9229 10.6038 41.8899 10.2958 41.8239 10.0538C41.7652 9.80443 41.6809 9.60643 41.5709 9.45976C41.4609 9.3131 41.3289 9.21043 41.1749 9.15176C41.0282 9.0931 40.8669 9.06376 40.6909 9.06376C40.5149 9.06376 40.3536 9.0931 40.2069 9.15176C40.0602 9.21043 39.9356 9.3131 39.8329 9.45976C39.7302 9.60643 39.6496 9.80443 39.5909 10.0538C39.5322 10.2958 39.5029 10.6038 39.5029 10.9778C39.5029 11.3298 39.5322 11.6231 39.5909 11.8578C39.6496 12.0924 39.7302 12.2794 39.8329 12.4188C39.9356 12.5581 40.0602 12.6571 40.2069 12.7158C40.3536 12.7744 40.5149 12.8038 40.6909 12.8038C40.8669 12.8038 41.0282 12.7744 41.1749 12.7158C41.3289 12.6571 41.4609 12.5581 41.5709 12.4188C41.6809 12.2794 41.7652 12.0924 41.8239 11.8578C41.8899 11.6231 41.9229 11.3298 41.9229 10.9778ZM49.5789 7.60076C49.6889 7.4761 49.8246 7.36243 49.9859 7.25976C50.1472 7.14976 50.3709 7.09476 50.6569 7.09476H53.1429L41.0649 22.6378C40.9549 22.7771 40.8156 22.8944 40.6469 22.9898C40.4856 23.0778 40.2876 23.1218 40.0529 23.1218H37.5009L49.5789 7.60076ZM53.7589 19.3598C53.7589 19.9464 53.6526 20.4854 53.4399 20.9768C53.2272 21.4608 52.9449 21.8788 52.5929 22.2308C52.2409 22.5754 51.8302 22.8431 51.3609 23.0338C50.8989 23.2244 50.4149 23.3198 49.9089 23.3198C49.3516 23.3198 48.8382 23.2244 48.3689 23.0338C47.9069 22.8431 47.5036 22.5754 47.1589 22.2308C46.8216 21.8788 46.5576 21.4608 46.3669 20.9768C46.1762 20.4854 46.0809 19.9464 46.0809 19.3598C46.0809 18.7511 46.1762 18.2011 46.3669 17.7098C46.5576 17.2111 46.8216 16.7858 47.1589 16.4338C47.5036 16.0818 47.9069 15.8104 48.3689 15.6198C48.8382 15.4218 49.3516 15.3228 49.9089 15.3228C50.4662 15.3228 50.9796 15.4218 51.4489 15.6198C51.9256 15.8104 52.3326 16.0818 52.6699 16.4338C53.0146 16.7858 53.2822 17.2111 53.4729 17.7098C53.6636 18.2011 53.7589 18.7511 53.7589 19.3598ZM51.1409 19.3598C51.1409 18.9931 51.1079 18.6888 51.0419 18.4468C50.9832 18.1974 50.8989 17.9994 50.7889 17.8528C50.6789 17.7061 50.5469 17.6034 50.3929 17.5448C50.2462 17.4861 50.0849 17.4568 49.9089 17.4568C49.7329 17.4568 49.5716 17.4861 49.4249 17.5448C49.2782 17.6034 49.1536 17.7061 49.0509 17.8528C48.9482 17.9994 48.8676 18.1974 48.8089 18.4468C48.7502 18.6888 48.7209 18.9931 48.7209 19.3598C48.7209 19.7118 48.7502 20.0051 48.8089 20.2398C48.8676 20.4744 48.9482 20.6614 49.0509 20.8008C49.1536 20.9401 49.2782 21.0391 49.4249 21.0978C49.5716 21.1564 49.7329 21.1858 49.9089 21.1858C50.0849 21.1858 50.2462 21.1564 50.3929 21.0978C50.5469 21.0391 50.6789 20.9401 50.7889 20.8008C50.8989 20.6614 50.9832 20.4744 51.0419 20.2398C51.1079 20.0051 51.1409 19.7118 51.1409 19.3598Z" fill="#F66123"/>
<path d="M14.7855 11.0706C15.073 11.0145 15.35 10.9759 15.6165 10.9548C15.883 10.9338 16.1424 10.9233 16.3949 10.9233C17.2013 10.9233 17.913 11.046 18.5301 11.2914C19.1472 11.5369 19.6661 11.8735 20.0869 12.3012C20.5076 12.722 20.8231 13.2198 21.0335 13.7948C21.2509 14.3628 21.3596 14.9729 21.3596 15.6251C21.3596 16.4455 21.2123 17.1958 20.9178 17.876C20.6303 18.5492 20.2271 19.1312 19.7082 19.6221C19.1893 20.1129 18.5687 20.4951 17.8464 20.7686C17.1312 21.0351 16.3458 21.1683 15.4903 21.1683C14.9924 21.1683 14.5156 21.1157 14.0598 21.0105C13.611 20.9053 13.1867 20.7651 12.787 20.5898C12.3943 20.4075 12.0297 20.2006 11.6931 19.9692C11.3565 19.7308 11.0515 19.4783 10.778 19.2119L11.7878 17.8655C11.893 17.7252 12.0157 17.6201 12.1559 17.5499C12.2962 17.4728 12.4469 17.4342 12.6082 17.4342C12.8186 17.4342 13.0149 17.4938 13.1972 17.613C13.3866 17.7252 13.5899 17.8515 13.8073 17.9917C14.0317 18.1249 14.2912 18.2477 14.5857 18.3599C14.8802 18.4721 15.2448 18.5282 15.6796 18.5282C16.1144 18.5282 16.486 18.458 16.7946 18.3178C17.1031 18.1705 17.352 17.9742 17.5414 17.7288C17.7377 17.4763 17.878 17.1853 17.9621 16.8557C18.0533 16.5191 18.0989 16.1615 18.0989 15.7828C18.0989 15.0395 17.8885 14.475 17.4677 14.0894C17.047 13.6967 16.451 13.5003 15.6796 13.5003C14.9924 13.5003 14.3192 13.63 13.6601 13.8895L11.6405 13.3425L12.9448 5.67457H20.7916V7.02094C20.7916 7.24533 20.7565 7.44869 20.6864 7.63101C20.6163 7.81333 20.5041 7.97461 20.3498 8.11486C20.2026 8.24809 20.0062 8.35328 19.7608 8.43041C19.5153 8.50054 19.2208 8.5356 18.8772 8.5356H15.2168L14.7855 11.0706ZM34.0991 13.332C34.0991 14.6714 33.9554 15.8319 33.6679 16.8136C33.3804 17.7954 32.9806 18.6088 32.4687 19.2539C31.9639 19.8991 31.3608 20.3794 30.6596 20.695C29.9653 21.0105 29.2115 21.1683 28.3981 21.1683C27.5847 21.1683 26.8308 21.0105 26.1366 20.695C25.4494 20.3794 24.8534 19.8991 24.3485 19.2539C23.8436 18.6088 23.4474 17.7954 23.1599 16.8136C22.8794 15.8319 22.7392 14.6714 22.7392 13.332C22.7392 11.9927 22.8794 10.8321 23.1599 9.85041C23.4474 8.86868 23.8436 8.05525 24.3485 7.41012C24.8534 6.76499 25.4494 6.28815 26.1366 5.97961C26.8308 5.66405 27.5847 5.50628 28.3981 5.50628C29.2115 5.50628 29.9653 5.66405 30.6596 5.97961C31.3608 6.28815 31.9639 6.76499 32.4687 7.41012C32.9806 8.05525 33.3804 8.86868 33.6679 9.85041C33.9554 10.8321 34.0991 11.9927 34.0991 13.332ZM30.7332 13.332C30.7332 12.2732 30.6666 11.4071 30.5333 10.734C30.4001 10.0538 30.2213 9.52083 29.9969 9.13515C29.7795 8.74947 29.5306 8.48651 29.2501 8.34627C28.9696 8.19901 28.6856 8.12538 28.3981 8.12538C28.1106 8.12538 27.8266 8.19901 27.5461 8.34627C27.2726 8.48651 27.0272 8.74947 26.8098 9.13515C26.5994 9.52083 26.4276 10.0538 26.2944 10.734C26.1682 11.4071 26.1051 12.2732 26.1051 13.332C26.1051 14.3979 26.1682 15.2674 26.2944 15.9406C26.4276 16.6138 26.5994 17.1467 26.8098 17.5394C27.0272 17.9251 27.2726 18.1916 27.5461 18.3388C27.8266 18.4791 28.1106 18.5492 28.3981 18.5492C28.6856 18.5492 28.9696 18.4791 29.2501 18.3388C29.5306 18.1916 29.7795 17.9251 29.9969 17.5394C30.2213 17.1467 30.4001 16.6138 30.5333 15.9406C30.6666 15.2674 30.7332 14.3979 30.7332 13.332ZM42.5787 9.38759C42.5787 9.94858 42.477 10.4605 42.2736 10.9233C42.0703 11.3861 41.8003 11.7858 41.4637 12.1224C41.1271 12.452 40.7344 12.7079 40.2856 12.8902C39.8438 13.0726 39.381 13.1637 38.8972 13.1637C38.3642 13.1637 37.8734 13.0726 37.4246 12.8902C36.9828 12.7079 36.5971 12.452 36.2676 12.1224C35.945 11.7858 35.6926 11.3861 35.5102 10.9233C35.3279 10.4605 35.2368 9.94858 35.2368 9.38759C35.2368 8.80557 35.3279 8.27965 35.5102 7.80982C35.6926 7.33299 35.945 6.92627 36.2676 6.58968C36.5971 6.25309 36.9828 5.99363 37.4246 5.81131C37.8734 5.62198 38.3642 5.52731 38.8972 5.52731C39.4301 5.52731 39.921 5.62198 40.3698 5.81131C40.8256 5.99363 41.2148 6.25309 41.5373 6.58968C41.8669 6.92627 42.1229 7.33299 42.3052 7.80982C42.4875 8.27965 42.5787 8.80557 42.5787 9.38759ZM40.0753 9.38759C40.0753 9.02997 40.0437 8.73545 39.9806 8.50404C39.9245 8.26562 39.8438 8.07629 39.7387 7.93604C39.6335 7.7958 39.5073 7.69763 39.36 7.64153C39.2198 7.58543 39.0655 7.55738 38.8972 7.55738C38.7289 7.55738 38.5746 7.58543 38.4344 7.64153C38.2941 7.69763 38.1749 7.7958 38.0767 7.93604C37.9786 8.07629 37.9014 8.26562 37.8453 8.50404C37.7892 8.73545 37.7612 9.02997 37.7612 9.38759C37.7612 9.72419 37.7892 10.0047 37.8453 10.2291C37.9014 10.4535 37.9786 10.6323 38.0767 10.7655C38.1749 10.8988 38.2941 10.9934 38.4344 11.0495C38.5746 11.1056 38.7289 11.1337 38.8972 11.1337C39.0655 11.1337 39.2198 11.1056 39.36 11.0495C39.5073 10.9934 39.6335 10.8988 39.7387 10.7655C39.8438 10.6323 39.9245 10.4535 39.9806 10.2291C40.0437 10.0047 40.0753 9.72419 40.0753 9.38759ZM47.3961 6.15842C47.5013 6.03921 47.631 5.93052 47.7853 5.83235C47.9396 5.72716 48.1534 5.67457 48.4269 5.67457H50.8041L39.2548 20.5372C39.1496 20.6704 39.0164 20.7826 38.8551 20.8738C38.7008 20.9579 38.5115 21 38.2871 21H35.8468L47.3961 6.15842ZM51.3931 17.4027C51.3931 17.9637 51.2915 18.4791 51.0881 18.9489C50.8847 19.4117 50.6148 19.8114 50.2782 20.148C49.9416 20.4776 49.5489 20.7335 49.1001 20.9159C48.6583 21.0982 48.1955 21.1893 47.7117 21.1893C47.1787 21.1893 46.6879 21.0982 46.2391 20.9159C45.7973 20.7335 45.4116 20.4776 45.0821 20.148C44.7595 19.8114 44.507 19.4117 44.3247 18.9489C44.1424 18.4791 44.0512 17.9637 44.0512 17.4027C44.0512 16.8207 44.1424 16.2947 44.3247 15.8249C44.507 15.3481 44.7595 14.9414 45.0821 14.6048C45.4116 14.2682 45.7973 14.0087 46.2391 13.8264C46.6879 13.6371 47.1787 13.5424 47.7117 13.5424C48.2446 13.5424 48.7355 13.6371 49.1843 13.8264C49.6401 14.0087 50.0292 14.2682 50.3518 14.6048C50.6814 14.9414 50.9373 15.3481 51.1197 15.8249C51.302 16.2947 51.3931 16.8207 51.3931 17.4027ZM48.8897 17.4027C48.8897 17.0521 48.8582 16.7611 48.7951 16.5296C48.739 16.2912 48.6583 16.1019 48.5532 15.9616C48.448 15.8214 48.3217 15.7232 48.1745 15.6671C48.0342 15.611 47.88 15.583 47.7117 15.583C47.5434 15.583 47.3891 15.611 47.2489 15.6671C47.1086 15.7232 46.9894 15.8214 46.8912 15.9616C46.7931 16.1019 46.7159 16.2912 46.6598 16.5296C46.6037 16.7611 46.5757 17.0521 46.5757 17.4027C46.5757 17.7393 46.6037 18.0198 46.6598 18.2442C46.7159 18.4686 46.7931 18.6474 46.8912 18.7806C46.9894 18.9138 47.1086 19.0085 47.2489 19.0646C47.3891 19.1207 47.5434 19.1487 47.7117 19.1487C47.88 19.1487 48.0342 19.1207 48.1745 19.0646C48.3217 19.0085 48.448 18.9138 48.5532 18.7806C48.6583 18.6474 48.739 18.4686 48.7951 18.2442C48.8582 18.0198 48.8897 17.7393 48.8897 17.4027Z" fill="white"/>
<path d="M14.7855 11.0706L14.2926 10.9867L14.1713 11.6998L14.8813 11.5613L14.7855 11.0706ZM15.6165 10.9548L15.5771 10.4564L15.5771 10.4564L15.6165 10.9548ZM18.5301 11.2914L18.3453 11.756L18.3453 11.756L18.5301 11.2914ZM20.0869 12.3012L19.7304 12.6518L19.7333 12.6548L20.0869 12.3012ZM21.0335 13.7948L20.5639 13.9666L20.5665 13.9736L21.0335 13.7948ZM20.9178 17.876L20.459 17.6773L20.458 17.6796L20.9178 17.876ZM19.7082 19.6221L19.3646 19.2588L19.3646 19.2588L19.7082 19.6221ZM17.8464 20.7686L18.021 21.2371L18.0235 21.2362L17.8464 20.7686ZM14.0598 21.0105L13.9457 21.4973L13.9473 21.4977L14.0598 21.0105ZM12.787 20.5898L12.5764 21.0434L12.5862 21.0477L12.787 20.5898ZM11.6931 19.9692L11.4041 20.3772L11.4098 20.3812L11.6931 19.9692ZM10.778 19.2119L10.378 18.9119L10.1144 19.2634L10.4291 19.57L10.778 19.2119ZM11.7878 17.8655L12.1878 18.1655L12.1878 18.1655L11.7878 17.8655ZM12.1559 17.5499L12.3795 17.9972L12.3883 17.9928L12.3969 17.988L12.1559 17.5499ZM13.1972 17.613L12.9236 18.0315L12.9329 18.0376L12.9423 18.0432L13.1972 17.613ZM13.8073 17.9917L13.5363 18.4119L13.5441 18.4169L13.552 18.4216L13.8073 17.9917ZM16.7946 18.3178L17.0015 18.773L17.0099 18.769L16.7946 18.3178ZM17.5414 17.7288L17.1467 17.4218L17.1455 17.4234L17.5414 17.7288ZM17.9621 16.8557L17.4795 16.725L17.4777 16.732L17.9621 16.8557ZM17.4677 14.0894L17.1266 14.4549L17.1299 14.4579L17.4677 14.0894ZM13.6601 13.8895L13.5293 14.3721L13.6891 14.4154L13.8432 14.3548L13.6601 13.8895ZM11.6405 13.3425L11.1476 13.2587L11.0714 13.7064L11.5098 13.8252L11.6405 13.3425ZM12.9448 5.67457V5.17457H12.5227L12.4519 5.59073L12.9448 5.67457ZM20.7916 5.67457H21.2916V5.17457H20.7916V5.67457ZM20.6864 7.63101L20.2197 7.45152L20.2197 7.45152L20.6864 7.63101ZM20.3498 8.11486L20.6853 8.48563L20.6861 8.48483L20.3498 8.11486ZM19.7608 8.43041L19.8982 8.91134L19.9107 8.90741L19.7608 8.43041ZM15.2168 8.5356V8.0356H14.7947L14.7239 8.45174L15.2168 8.5356ZM14.8813 11.5613C15.1519 11.5085 15.41 11.4727 15.6558 11.4533L15.5771 10.4564C15.29 10.4791 14.9942 10.5204 14.6898 10.5798L14.8813 11.5613ZM15.6558 11.4533C15.91 11.4332 16.1563 11.4233 16.3949 11.4233V10.4233C16.1285 10.4233 15.8559 10.4344 15.5771 10.4564L15.6558 11.4533ZM16.3949 11.4233C17.1512 11.4233 17.7982 11.5384 18.3453 11.756L18.7149 10.8268C18.0279 10.5536 17.2514 10.4233 16.3949 10.4233V11.4233ZM18.3453 11.756C18.9048 11.9786 19.3633 12.2786 19.7304 12.6518L20.4433 11.9506C19.9689 11.4683 19.3896 11.0952 18.7149 10.8268L18.3453 11.756ZM19.7333 12.6548C20.1011 13.0226 20.3778 13.4579 20.564 13.9666L21.5031 13.623C21.2685 12.9818 20.9141 12.4213 20.4404 11.9477L19.7333 12.6548ZM20.5665 13.9736C20.7606 14.4805 20.8596 15.0296 20.8596 15.6251H21.8596C21.8596 14.9163 21.7412 14.2452 21.5005 13.6161L20.5665 13.9736ZM20.8596 15.6251C20.8596 16.3845 20.7236 17.0663 20.459 17.6773L21.3766 18.0747C21.7011 17.3254 21.8596 16.5065 21.8596 15.6251H20.8596ZM20.458 17.6796C20.1967 18.2914 19.8325 18.8162 19.3646 19.2588L20.0518 19.9853C20.6217 19.4462 21.0639 18.807 21.3776 18.0724L20.458 17.6796ZM19.3646 19.2588C18.8975 19.7007 18.3348 20.049 17.6694 20.301L18.0235 21.2362C18.8025 20.9412 19.481 20.5252 20.0518 19.9853L19.3646 19.2588ZM17.6719 20.3001C17.0188 20.5434 16.2933 20.6683 15.4903 20.6683V21.6683C16.3982 21.6683 17.2435 21.5268 18.021 21.2371L17.6719 20.3001ZM15.4903 20.6683C15.0278 20.6683 14.5888 20.6195 14.1722 20.5233L13.9473 21.4977C14.4423 21.6119 14.957 21.6683 15.4903 21.6683V20.6683ZM14.1739 20.5237C13.7531 20.4251 13.3581 20.2943 12.9879 20.1319L12.5862 21.0477C13.0154 21.2359 13.4688 21.3856 13.9457 21.4973L14.1739 20.5237ZM12.9976 20.1363C12.6287 19.965 12.2886 19.7718 11.9764 19.5572L11.4098 20.3812C11.7708 20.6294 12.1599 20.8499 12.5765 21.0433L12.9976 20.1363ZM11.9821 19.5612C11.6651 19.3366 11.3803 19.1007 11.1269 18.8537L10.4291 19.57C10.7226 19.856 11.0479 20.1249 11.4041 20.3772L11.9821 19.5612ZM11.178 19.5119L12.1878 18.1655L11.3878 17.5655L10.378 18.9119L11.178 19.5119ZM12.1878 18.1655C12.2519 18.0799 12.3165 18.0286 12.3795 17.9972L11.9323 17.1027C11.7148 17.2115 11.534 17.3706 11.3878 17.5655L12.1878 18.1655ZM12.3969 17.988C12.4627 17.9518 12.5305 17.9342 12.6082 17.9342V16.9342C12.3633 16.9342 12.1296 16.9938 11.915 17.1118L12.3969 17.988ZM12.6082 17.9342C12.7178 17.9342 12.8196 17.9635 12.9236 18.0315L13.4709 17.1946C13.2103 17.0242 12.9194 16.9342 12.6082 16.9342V17.9342ZM12.9423 18.0432C13.1254 18.1517 13.3233 18.2745 13.5363 18.4119L14.0784 17.5716C13.8566 17.4285 13.6478 17.2988 13.4521 17.1829L12.9423 18.0432ZM13.552 18.4216C13.8055 18.5721 14.0917 18.7067 14.4077 18.8271L14.7637 17.8926C14.4906 17.7886 14.2579 17.6778 14.0626 17.5618L13.552 18.4216ZM14.4077 18.8271C14.7762 18.9675 15.2055 19.0282 15.6796 19.0282V18.0282C15.2842 18.0282 14.9843 17.9766 14.7637 17.8926L14.4077 18.8271ZM15.6796 19.0282C16.1663 19.0282 16.6123 18.9499 17.0015 18.773L16.5877 17.8626C16.3597 17.9662 16.0624 18.0282 15.6796 18.0282V19.0282ZM17.0099 18.769C17.3819 18.5915 17.6953 18.3479 17.9373 18.0342L17.1455 17.4234C17.0088 17.6005 16.8244 17.7495 16.5792 17.8665L17.0099 18.769ZM17.9361 18.0357C18.1773 17.7256 18.3465 17.3713 18.4466 16.9794L17.4777 16.732C17.4094 16.9993 17.2982 17.227 17.1467 17.4218L17.9361 18.0357ZM18.4447 16.9864C18.5484 16.6037 18.5989 16.2019 18.5989 15.7828H17.5989C17.5989 16.1211 17.5582 16.4345 17.4795 16.725L18.4447 16.9864ZM18.5989 15.7828C18.5989 14.9441 18.3586 14.2277 17.8056 13.7208L17.1299 14.4579C17.4184 14.7224 17.5989 15.1349 17.5989 15.7828H18.5989ZM17.8089 13.7238C17.2678 13.2188 16.5336 13.0003 15.6796 13.0003V14.0003C16.3683 14.0003 16.8262 14.1746 17.1266 14.4549L17.8089 13.7238ZM15.6796 13.0003C14.9278 13.0003 14.1926 13.1426 13.4769 13.4243L13.8432 14.3548C14.4459 14.1175 15.057 14.0003 15.6796 14.0003V13.0003ZM13.7908 13.4069L11.7712 12.8599L11.5098 13.8252L13.5293 14.3721L13.7908 13.4069ZM12.1334 13.4264L13.4377 5.75842L12.4519 5.59073L11.1476 13.2587L12.1334 13.4264ZM12.9448 6.17457H20.7916V5.17457H12.9448V6.17457ZM20.2916 5.67457V7.02094H21.2916V5.67457H20.2916ZM20.2916 7.02094C20.2916 7.19298 20.2648 7.33433 20.2197 7.45152L21.1531 7.8105C21.2482 7.56305 21.2916 7.29768 21.2916 7.02094H20.2916ZM20.2197 7.45152C20.1795 7.55619 20.114 7.65348 20.0135 7.74489L20.6861 8.48483C20.8941 8.29574 21.0531 8.07047 21.1531 7.8105L20.2197 7.45152ZM20.0144 7.74409C19.9339 7.81689 19.807 7.89177 19.6109 7.95342L19.9107 8.90741C20.2054 8.81479 20.4712 8.6793 20.6853 8.48563L20.0144 7.74409ZM19.6234 7.94965C19.435 8.00347 19.1893 8.0356 18.8772 8.0356V9.0356C19.2524 9.0356 19.5957 8.9976 19.8981 8.91118L19.6234 7.94965ZM18.8772 8.0356H15.2168V9.0356H18.8772V8.0356ZM14.7239 8.45174L14.2926 10.9867L15.2785 11.1544L15.7097 8.61946L14.7239 8.45174ZM33.6679 16.8136L33.188 16.6731L33.188 16.6731L33.6679 16.8136ZM32.4687 19.2539L32.0771 18.9431L32.075 18.9458L32.4687 19.2539ZM30.6596 20.695L30.4544 20.239L30.4527 20.2398L30.6596 20.695ZM26.1366 20.695L25.928 21.1494L25.9297 21.1501L26.1366 20.695ZM24.3485 19.2539L23.9547 19.5621L23.9547 19.5621L24.3485 19.2539ZM23.1599 16.8136L22.6791 16.951L22.68 16.9542L23.1599 16.8136ZM23.1599 9.85041L22.68 9.70988L22.6791 9.71305L23.1599 9.85041ZM24.3485 7.41012L23.9547 7.10197L23.9547 7.10197L24.3485 7.41012ZM26.1366 5.97961L26.3414 6.43575L26.3435 6.43479L26.1366 5.97961ZM30.6596 5.97961L30.4527 6.43482L30.4582 6.43726L30.6596 5.97961ZM32.4687 7.41012L32.075 7.71828L32.0771 7.72091L32.4687 7.41012ZM33.6679 9.85041L33.188 9.99093L33.188 9.99093L33.6679 9.85041ZM30.5333 10.734L30.0427 10.8301L30.0429 10.831L30.5333 10.734ZM29.9969 9.13515L29.5613 9.38068L29.5647 9.3866L29.9969 9.13515ZM29.2501 8.34627L29.0176 8.78905L29.0265 8.79348L29.2501 8.34627ZM27.5461 8.34627L27.7743 8.79119L27.7785 8.78896L27.5461 8.34627ZM26.8098 9.13515L26.3742 8.88962L26.3709 8.89573L26.8098 9.13515ZM26.2944 10.734L25.8037 10.6378L25.803 10.6418L26.2944 10.734ZM26.2944 15.9406L25.8029 16.0328L25.8039 16.0377L26.2944 15.9406ZM26.8098 17.5394L26.369 17.7756L26.3742 17.7849L26.8098 17.5394ZM27.5461 18.3388L27.309 18.7791L27.3157 18.7827L27.3225 18.786L27.5461 18.3388ZM29.2501 18.3388L29.4737 18.7861L29.4825 18.7815L29.2501 18.3388ZM29.9969 17.5394L29.5628 17.2913L29.5613 17.2939L29.9969 17.5394ZM30.5333 15.9406L30.0429 15.8435L30.0429 15.8435L30.5333 15.9406ZM33.5991 13.332C33.5991 14.6376 33.4588 15.7486 33.188 16.6731L34.1477 16.9542C34.452 15.9152 34.5991 14.7051 34.5991 13.332H33.5991ZM33.188 16.6731C32.9144 17.6074 32.5404 18.3592 32.0771 18.9431L32.8604 19.5647C33.4208 18.8584 33.8463 17.9833 34.1477 16.9542L33.188 16.6731ZM32.075 18.9458C31.6167 19.5314 31.0769 19.9589 30.4544 20.239L30.8648 21.1509C31.6447 20.7999 32.311 20.2668 32.8625 19.5621L32.075 18.9458ZM30.4527 20.2398C29.8277 20.5239 29.145 20.6683 28.3981 20.6683V21.6683C29.2781 21.6683 30.103 21.4972 30.8665 21.1501L30.4527 20.2398ZM28.3981 20.6683C27.6512 20.6683 26.9685 20.5239 26.3435 20.2398L25.9297 21.1501C26.6932 21.4972 27.5181 21.6683 28.3981 21.6683V20.6683ZM26.3453 20.2406C25.7365 19.961 25.2022 19.5335 24.7422 18.9458L23.9547 19.5621C24.5046 20.2647 25.1624 20.7978 25.928 21.1493L26.3453 20.2406ZM24.7422 18.9458C24.2848 18.3613 23.9137 17.6086 23.6397 16.6731L22.68 16.9542C22.9811 17.9821 23.4024 18.8563 23.9547 19.5621L24.7422 18.9458ZM23.6407 16.6763C23.3762 15.7506 23.2392 14.6385 23.2392 13.332H22.2392C22.2392 14.7043 22.3826 15.9132 22.6791 16.951L23.6407 16.6763ZM23.2392 13.332C23.2392 12.0256 23.3762 10.9134 23.6407 9.98777L22.6791 9.71305C22.3826 10.7508 22.2392 11.9598 22.2392 13.332H23.2392ZM23.6397 9.99093C23.9137 9.05545 24.2848 8.30278 24.7422 7.71827L23.9547 7.10197C23.4024 7.80773 22.9811 8.68192 22.68 9.70988L23.6397 9.99093ZM24.7422 7.71827C25.2016 7.13136 25.7346 6.70818 26.3414 6.43574L25.9318 5.52347C25.1642 5.86812 24.5052 6.39862 23.9547 7.10197L24.7422 7.71827ZM26.3435 6.43479C26.9685 6.15071 27.6512 6.00628 28.3981 6.00628V5.00628C27.5181 5.00628 26.6932 5.17739 25.9297 5.52442L26.3435 6.43479ZM28.3981 6.00628C29.145 6.00628 29.8277 6.15071 30.4527 6.43479L30.8665 5.52442C30.103 5.17739 29.2781 5.00628 28.3981 5.00628V6.00628ZM30.4582 6.43726C31.0788 6.71031 31.6173 7.13345 32.075 7.71827L32.8625 7.10197C32.3104 6.39653 31.6429 5.86599 30.8609 5.52195L30.4582 6.43726ZM32.0771 7.72091C32.5404 8.30489 32.9144 9.05663 33.188 9.99093L34.1477 9.70988C33.8463 8.68074 33.4208 7.80562 32.8604 7.09933L32.0771 7.72091ZM33.188 9.99093C33.4588 10.9154 33.5991 12.0264 33.5991 13.332H34.5991C34.5991 11.9589 34.452 10.7488 34.1477 9.70988L33.188 9.99093ZM31.2332 13.332C31.2332 12.2561 31.1658 11.3543 31.0238 10.6369L30.0429 10.831C30.1673 11.46 30.2332 12.2902 30.2332 13.332H31.2332ZM31.024 10.6378C30.8853 9.92978 30.6925 9.33653 30.4291 8.8837L29.5647 9.3866C29.7501 9.70512 29.9149 10.1777 30.0427 10.8301L31.024 10.6378ZM30.4325 8.88965C30.1855 8.45149 29.8731 8.09877 29.4737 7.89905L29.0265 8.79348C29.188 8.87425 29.3735 9.04746 29.5613 9.38066L30.4325 8.88965ZM29.4825 7.90357C29.1378 7.72258 28.7746 7.62538 28.3981 7.62538V8.62538C28.5966 8.62538 28.8014 8.67544 29.0177 8.78896L29.4825 7.90357ZM28.3981 7.62538C28.0216 7.62538 27.6584 7.72258 27.3137 7.90357L27.7785 8.78896C27.9948 8.67544 28.1996 8.62538 28.3981 8.62538V7.62538ZM27.3179 7.90136C26.9268 8.10196 26.6195 8.45441 26.3742 8.88965L27.2454 9.38066C27.4348 9.04454 27.6185 8.87106 27.7743 8.79117L27.3179 7.90136ZM26.3709 8.89573C26.1261 9.34441 25.9418 9.93294 25.8037 10.6378L26.7851 10.8301C26.9135 10.1746 27.0727 9.69725 27.2488 9.37458L26.3709 8.89573ZM25.803 10.6418C25.6688 11.3571 25.6051 12.257 25.6051 13.332H26.6051C26.6051 12.2893 26.6675 11.4572 26.7858 10.8261L25.803 10.6418ZM25.6051 13.332C25.6051 14.4138 25.6688 15.3173 25.803 16.0328L26.7858 15.8485C26.6675 15.2175 26.6051 14.382 26.6051 13.332H25.6051ZM25.8039 16.0377C25.9422 16.7362 26.1263 17.3224 26.3691 17.7755L27.2505 17.3033C27.0726 16.9711 26.9131 16.4914 26.7849 15.8435L25.8039 16.0377ZM26.3742 17.7849C26.6192 18.2196 26.924 18.5717 27.309 18.7791L27.7831 17.8986C27.6212 17.8114 27.4351 17.6306 27.2454 17.2939L26.3742 17.7849ZM27.3225 18.786C27.666 18.9578 28.0261 19.0492 28.3981 19.0492V18.0492C28.1951 18.0492 27.9872 18.0004 27.7697 17.8916L27.3225 18.786ZM28.3981 19.0492C28.7701 19.0492 29.1302 18.9578 29.4737 18.786L29.0265 17.8916C28.809 18.0004 28.6011 18.0492 28.3981 18.0492V19.0492ZM29.4825 18.7815C29.8759 18.575 30.1859 18.2225 30.4325 17.7849L29.5613 17.2939C29.3732 17.6277 29.1853 17.8081 29.0177 17.8961L29.4825 18.7815ZM30.431 17.7875C30.6923 17.3302 30.885 16.7394 31.0238 16.0377L30.0429 15.8435C29.9153 16.4882 29.7503 16.9633 29.5628 17.2913L30.431 17.7875ZM31.0238 16.0377C31.1659 15.3201 31.2332 14.4147 31.2332 13.332H30.2332C30.2332 14.3811 30.1673 15.2148 30.0429 15.8435L31.0238 16.0377ZM42.2736 10.9233L42.7314 11.1244L42.7314 11.1244L42.2736 10.9233ZM41.4637 12.1224L41.8135 12.4797L41.8172 12.476L41.4637 12.1224ZM40.2856 12.8902L40.0974 12.427L40.0949 12.4281L40.2856 12.8902ZM37.4246 12.8902L37.2339 13.3524L37.2364 13.3535L37.4246 12.8902ZM36.2676 12.1224L35.9065 12.4684L35.914 12.476L36.2676 12.1224ZM35.5102 10.9233L35.9754 10.74L35.9754 10.74L35.5102 10.9233ZM35.5102 7.80982L35.9764 7.99071L35.9773 7.98839L35.5102 7.80982ZM36.2676 6.58968L35.9103 6.23985L35.9066 6.24373L36.2676 6.58968ZM37.4246 5.81131L37.6153 6.27351L37.6189 6.27199L37.4246 5.81131ZM40.3698 5.81131L40.1754 6.27207L40.1841 6.27555L40.3698 5.81131ZM41.5373 6.58968L41.1763 6.93565L41.1801 6.93949L41.5373 6.58968ZM42.3052 7.80982L41.8381 7.98839L41.839 7.99071L42.3052 7.80982ZM39.9806 8.50404L39.4939 8.61856L39.4959 8.62712L39.4982 8.6356L39.9806 8.50404ZM39.7387 7.93604L40.1387 7.63604L40.1387 7.63604L39.7387 7.93604ZM39.36 7.64153L39.1743 8.10583L39.182 8.10877L39.36 7.64153ZM38.4344 7.64153L38.2487 7.17729L38.2487 7.17729L38.4344 7.64153ZM38.0767 7.93604L37.6671 7.64931L37.6671 7.64931L38.0767 7.93604ZM37.8453 8.50404L38.3313 8.62184L38.332 8.61856L37.8453 8.50404ZM37.8453 10.2291L38.3304 10.1078L38.3304 10.1078L37.8453 10.2291ZM38.0767 10.7655L38.4793 10.4689L38.4793 10.4689L38.0767 10.7655ZM38.4344 11.0495L38.2487 11.5138L38.2487 11.5138L38.4344 11.0495ZM39.36 11.0495L39.182 10.5822L39.1743 10.5853L39.36 11.0495ZM39.7387 10.7655L39.3462 10.4557L39.3462 10.4557L39.7387 10.7655ZM39.9806 10.2291L39.4993 10.0937L39.4973 10.1007L39.4955 10.1078L39.9806 10.2291ZM47.3961 6.15842L47.0212 5.82761L47.011 5.83918L47.0015 5.85135L47.3961 6.15842ZM47.7853 5.83235L48.0537 6.25418L48.0604 6.24993L48.067 6.24546L47.7853 5.83235ZM50.8041 5.67457L51.1989 5.98137L51.8259 5.17457H50.8041V5.67457ZM39.2548 20.5372L39.6473 20.847L39.6496 20.844L39.2548 20.5372ZM38.8551 20.8738L39.0946 21.3128L39.1011 21.3091L38.8551 20.8738ZM35.8468 21L35.4522 20.6929L34.8242 21.5H35.8468V21ZM51.0881 18.9489L51.5459 19.15L51.547 19.1475L51.0881 18.9489ZM50.2782 20.148L50.628 20.5053L50.6317 20.5016L50.2782 20.148ZM49.1001 20.9159L48.9119 20.4526L48.9094 20.4537L49.1001 20.9159ZM46.2391 20.9159L46.0483 21.378L46.0509 21.3791L46.2391 20.9159ZM45.0821 20.148L44.721 20.494L44.7285 20.5016L45.0821 20.148ZM44.3247 18.9489L43.8586 19.1298L43.8595 19.1322L44.3247 18.9489ZM44.3247 15.8249L44.7909 16.0058L44.7917 16.0035L44.3247 15.8249ZM45.0821 14.6048L44.7248 14.2549L44.7211 14.2588L45.0821 14.6048ZM46.2391 13.8264L46.4298 14.2886L46.4334 14.2871L46.2391 13.8264ZM49.1843 13.8264L48.9899 14.2872L48.9986 14.2906L49.1843 13.8264ZM50.3518 14.6048L49.9908 14.9507L49.9946 14.9546L50.3518 14.6048ZM51.1197 15.8249L50.6526 16.0035L50.6535 16.0058L51.1197 15.8249ZM48.7951 16.5296L48.3084 16.6442L48.3104 16.6527L48.3127 16.6612L48.7951 16.5296ZM48.5532 15.9616L48.9532 15.6616L48.9532 15.6616L48.5532 15.9616ZM48.1745 15.6671L47.9888 16.1314L47.9965 16.1344L48.1745 15.6671ZM46.8912 15.9616L46.4816 15.6749L46.4816 15.6749L46.8912 15.9616ZM46.6598 16.5296L47.1458 16.6474L47.1465 16.6442L46.6598 16.5296ZM46.6598 18.2442L47.1449 18.1229L47.1449 18.1229L46.6598 18.2442ZM46.8912 18.7806L46.4887 19.0772L46.4887 19.0772L46.8912 18.7806ZM47.2489 19.0646L47.4346 18.6004L47.4346 18.6004L47.2489 19.0646ZM48.1745 19.0646L47.9965 18.5973L47.9888 18.6004L48.1745 19.0646ZM48.5532 18.7806L48.9456 19.0904L48.9456 19.0904L48.5532 18.7806ZM48.7951 18.2442L48.3138 18.1088L48.3118 18.1158L48.31 18.1229L48.7951 18.2442ZM42.0787 9.38759C42.0787 9.88697 41.9884 10.3294 41.8159 10.7222L42.7314 11.1244C42.9655 10.5916 43.0787 10.0102 43.0787 9.38759H42.0787ZM41.8159 10.7222C41.6359 11.1317 41.4002 11.4788 41.1101 11.7688L41.8172 12.476C42.2004 12.0928 42.5046 11.6405 42.7314 11.1244L41.8159 10.7222ZM41.1139 11.7651C40.8251 12.0479 40.4877 12.2685 40.0974 12.427L40.4738 13.3535C40.9811 13.1474 41.4291 12.856 41.8135 12.4797L41.1139 11.7651ZM40.0949 12.4281C39.7144 12.5851 39.3164 12.6637 38.8972 12.6637V13.6637C39.4456 13.6637 39.9733 13.56 40.4764 13.3524L40.0949 12.4281ZM38.8972 12.6637C38.4223 12.6637 37.9961 12.5827 37.6128 12.427L37.2364 13.3535C37.7507 13.5624 38.3062 13.6637 38.8972 13.6637V12.6637ZM37.6153 12.4281C37.2329 12.2702 36.9029 12.0506 36.6211 11.7688L35.914 12.476C36.2914 12.8533 36.7328 13.1456 37.2339 13.3524L37.6153 12.4281ZM36.6286 11.7764C36.3539 11.4899 36.1355 11.1465 35.9754 10.74L35.045 11.1066C35.2496 11.6258 35.5361 12.0817 35.9066 12.4684L36.6286 11.7764ZM35.9754 10.74C35.8189 10.3426 35.7368 9.89382 35.7368 9.38759H34.7368C34.7368 10.0033 34.837 10.5784 35.045 11.1066L35.9754 10.74ZM35.7368 9.38759C35.7368 8.85799 35.8196 8.39465 35.9764 7.99071L35.0441 7.62894C34.8362 8.16465 34.7368 8.75316 34.7368 9.38759H35.7368ZM35.9773 7.98839C36.138 7.56791 36.3564 7.21966 36.6286 6.93563L35.9066 6.24373C35.5336 6.63288 35.2471 7.09806 35.0432 7.63125L35.9773 7.98839ZM36.6248 6.93949C36.9064 6.65195 37.2352 6.4304 37.6153 6.2735L37.2339 5.34912C36.7305 5.55687 36.2879 5.85422 35.9103 6.23987L36.6248 6.93949ZM37.6189 6.27199C38.0007 6.11096 38.4247 6.02731 38.8972 6.02731V5.02731C38.3038 5.02731 37.7461 5.133 37.2302 5.35063L37.6189 6.27199ZM38.8972 6.02731C39.3697 6.02731 39.7937 6.11096 40.1754 6.27199L40.5641 5.35063C40.0483 5.133 39.4906 5.02731 38.8972 5.02731V6.02731ZM40.1841 6.27555C40.5773 6.43282 40.9057 6.65323 41.1763 6.93563L41.8983 6.24373C41.5238 5.85294 41.0739 5.55444 40.5555 5.34707L40.1841 6.27555ZM41.1801 6.93949C41.4578 7.22315 41.6782 7.57014 41.8381 7.98839L42.7722 7.63125C42.5675 7.09583 42.276 6.62939 41.8946 6.23987L41.1801 6.93949ZM41.839 7.99071C41.9958 8.39465 42.0787 8.85799 42.0787 9.38759H43.0787C43.0787 8.75316 42.9792 8.16465 42.7713 7.62894L41.839 7.99071ZM40.5753 9.38759C40.5753 9.00502 40.542 8.6622 40.463 8.37248L39.4982 8.6356C39.5454 8.8087 39.5753 9.05491 39.5753 9.38759H40.5753ZM40.4673 8.38952C40.4012 8.10882 40.2982 7.84878 40.1387 7.63604L39.3387 8.23604C39.3895 8.3038 39.4477 8.42243 39.4939 8.61856L40.4673 8.38952ZM40.1387 7.63604C39.9834 7.42897 39.7833 7.26773 39.538 7.17428L39.182 8.10877C39.2312 8.12752 39.2836 8.16263 39.3387 8.23604L40.1387 7.63604ZM39.5457 7.17729C39.34 7.09501 39.1218 7.05738 38.8972 7.05738V8.05738C39.0091 8.05738 39.0995 8.07584 39.1743 8.10576L39.5457 7.17729ZM38.8972 7.05738C38.6725 7.05738 38.4544 7.09501 38.2487 7.17729L38.6201 8.10576C38.6949 8.07584 38.7852 8.05738 38.8972 8.05738V7.05738ZM38.2487 7.17729C38.0065 7.27418 37.8134 7.44033 37.6671 7.64931L38.4864 8.22278C38.5364 8.15127 38.5818 8.12107 38.6201 8.10576L38.2487 7.17729ZM37.6671 7.64931C37.5205 7.8588 37.4235 8.1138 37.3586 8.38952L38.332 8.61856C38.3794 8.41744 38.4367 8.29378 38.4864 8.22277L37.6671 7.64931ZM37.3594 8.38624C37.2906 8.67029 37.2612 9.00798 37.2612 9.38759H38.2612C38.2612 9.05195 38.2879 8.80061 38.3313 8.62184L37.3594 8.38624ZM37.2612 9.38759C37.2612 9.74832 37.2909 10.0728 37.3603 10.3503L38.3304 10.1078C38.2876 9.93656 38.2612 9.70005 38.2612 9.38759H37.2612ZM37.3603 10.3503C37.4263 10.6146 37.5253 10.86 37.6742 11.0621L38.4793 10.4689C38.4319 10.4046 38.3765 10.2923 38.3304 10.1078L37.3603 10.3503ZM37.6742 11.0621C37.8222 11.2629 38.0138 11.4198 38.2487 11.5138L38.6201 10.5853C38.5745 10.567 38.5277 10.5346 38.4793 10.4689L37.6742 11.0621ZM38.2487 11.5138C38.4544 11.596 38.6725 11.6337 38.8972 11.6337V10.6337C38.7852 10.6337 38.6949 10.6152 38.6201 10.5853L38.2487 11.5138ZM38.8972 11.6337C39.1218 11.6337 39.34 11.596 39.5457 11.5138L39.1743 10.5853C39.0995 10.6152 39.0091 10.6337 38.8972 10.6337V11.6337ZM39.538 11.5168C39.7761 11.426 39.9744 11.2738 40.1311 11.0753L39.3462 10.4557C39.2925 10.5237 39.2384 10.5608 39.182 10.5823L39.538 11.5168ZM40.1311 11.0753C40.293 10.8702 40.3983 10.62 40.4657 10.3503L39.4955 10.1078C39.4507 10.287 39.3947 10.3943 39.3462 10.4557L40.1311 11.0753ZM40.4619 10.3644C40.5416 10.0812 40.5753 9.75156 40.5753 9.38759H39.5753C39.5753 9.69681 39.5458 9.92812 39.4993 10.0937L40.4619 10.3644ZM47.771 6.48923C47.8409 6.41002 47.9332 6.33086 48.0537 6.25418L47.5169 5.41052C47.3288 5.53019 47.1617 5.6684 47.0212 5.82761L47.771 6.48923ZM48.067 6.24546C48.1079 6.21755 48.2096 6.17457 48.4269 6.17457V5.17457C48.0973 5.17457 47.7712 5.23677 47.5036 5.41923L48.067 6.24546ZM48.4269 6.17457H50.8041V5.17457H48.4269V6.17457ZM50.4093 5.36778L38.86 20.2304L39.6496 20.844L51.1989 5.98137L50.4093 5.36778ZM38.8624 20.2274C38.8009 20.3052 38.7191 20.3763 38.6091 20.4385L39.1011 21.3091C39.3137 21.1889 39.4983 21.0356 39.6473 20.847L38.8624 20.2274ZM38.6157 20.4348C38.5524 20.4693 38.4505 20.5 38.2871 20.5V21.5C38.5725 21.5 38.8492 21.4465 39.0945 21.3127L38.6157 20.4348ZM38.2871 20.5H35.8468V21.5H38.2871V20.5ZM36.2414 21.3071L47.7907 6.46549L47.0015 5.85135L35.4522 20.6929L36.2414 21.3071ZM50.8931 17.4027C50.8931 17.9019 50.803 18.3489 50.6292 18.7503L51.547 19.1475C51.78 18.6092 51.8931 18.0254 51.8931 17.4027H50.8931ZM50.6303 18.7478C50.4504 19.1573 50.2147 19.5044 49.9246 19.7944L50.6317 20.5016C51.0149 20.1184 51.3191 19.6661 51.5459 19.15L50.6303 18.7478ZM49.9284 19.7907C49.6396 20.0735 49.3022 20.2941 48.9119 20.4526L49.2883 21.3791C49.7956 21.173 50.2436 20.8816 50.628 20.5053L49.9284 19.7907ZM48.9094 20.4537C48.5289 20.6107 48.1309 20.6893 47.7117 20.6893V21.6893C48.2601 21.6893 48.7878 21.5856 49.2909 21.378L48.9094 20.4537ZM47.7117 20.6893C47.2368 20.6893 46.8106 20.6083 46.4273 20.4526L46.0509 21.3791C46.5652 21.588 47.1207 21.6893 47.7117 21.6893V20.6893ZM46.4298 20.4537C46.0474 20.2958 45.7174 20.0763 45.4356 19.7944L44.7285 20.5016C45.1059 20.8789 45.5472 21.1712 46.0483 21.378L46.4298 20.4537ZM45.443 19.8021C45.1684 19.5155 44.95 19.1721 44.7899 18.7656L43.8595 19.1322C44.0641 19.6514 44.3506 20.1073 44.7211 20.494L45.443 19.8021ZM44.7909 18.768C44.6333 18.362 44.5512 17.9088 44.5512 17.4027H43.5512C43.5512 18.0186 43.6515 18.5961 43.8586 19.1298L44.7909 18.768ZM44.5512 17.4027C44.5512 16.8731 44.6341 16.4097 44.7909 16.0058L43.8586 15.644C43.6507 16.1797 43.5512 16.7682 43.5512 17.4027H44.5512ZM44.7917 16.0035C44.9525 15.583 45.1709 15.2347 45.443 14.9507L44.7211 14.2588C44.3481 14.648 44.0616 15.1131 43.8577 15.6463L44.7917 16.0035ZM45.4393 14.9546C45.7209 14.667 46.0497 14.4455 46.4298 14.2886L46.0483 13.3642C45.545 13.572 45.1024 13.8693 44.7248 14.255L45.4393 14.9546ZM46.4334 14.2871C46.8151 14.126 47.2392 14.0424 47.7117 14.0424V13.0424C47.1183 13.0424 46.5606 13.1481 46.0447 13.3657L46.4334 14.2871ZM47.7117 14.0424C48.1842 14.0424 48.6082 14.126 48.9899 14.2871L49.3786 13.3657C48.8627 13.1481 48.305 13.0424 47.7117 13.0424V14.0424ZM48.9986 14.2906C49.3918 14.4479 49.7202 14.6683 49.9908 14.9507L50.7128 14.2588C50.3383 13.868 49.8884 13.5695 49.37 13.3622L48.9986 14.2906ZM49.9946 14.9546C50.2723 15.2382 50.4927 15.5852 50.6526 16.0035L51.5867 15.6463C51.382 15.1109 51.0905 14.6445 50.7091 14.255L49.9946 14.9546ZM50.6535 16.0058C50.8103 16.4097 50.8931 16.8731 50.8931 17.4027H51.8931C51.8931 16.7682 51.7937 16.1797 51.5858 15.644L50.6535 16.0058ZM49.3897 17.4027C49.3897 17.0261 49.3563 16.6871 49.2775 16.3981L48.3127 16.6612C48.3601 16.835 48.3897 17.078 48.3897 17.4027H49.3897ZM49.2818 16.4151C49.2157 16.1344 49.1127 15.8744 48.9532 15.6616L48.1532 16.2616C48.204 16.3294 48.2622 16.448 48.3084 16.6442L49.2818 16.4151ZM48.9532 15.6616C48.7978 15.4546 48.5978 15.2933 48.3525 15.1999L47.9965 16.1344C48.0457 16.1531 48.0981 16.1882 48.1532 16.2616L48.9532 15.6616ZM48.3602 15.2029C48.1545 15.1206 47.9363 15.083 47.7117 15.083V16.083C47.8236 16.083 47.914 16.1014 47.9888 16.1314L48.3602 15.2029ZM47.7117 15.083C47.487 15.083 47.2688 15.1206 47.0632 15.2029L47.4346 16.1314C47.5094 16.1014 47.5997 16.083 47.7117 16.083V15.083ZM47.0632 15.2029C46.8209 15.2998 46.6279 15.4659 46.4816 15.6749L47.3008 16.2484C47.3509 16.1769 47.3963 16.1467 47.4346 16.1314L47.0632 15.2029ZM46.4816 15.6749C46.335 15.8844 46.238 16.1394 46.1731 16.4151L47.1465 16.6442C47.1939 16.443 47.2511 16.3194 47.3008 16.2484L46.4816 15.6749ZM46.1739 16.4118C46.1052 16.6953 46.0757 17.0292 46.0757 17.4027H47.0757C47.0757 17.075 47.1023 16.8268 47.1457 16.6474L46.1739 16.4118ZM46.0757 17.4027C46.0757 17.7634 46.1054 18.0879 46.1748 18.3654L47.1449 18.1229C47.1021 17.9516 47.0757 17.7151 47.0757 17.4027H46.0757ZM46.1748 18.3654C46.2408 18.6297 46.3397 18.875 46.4887 19.0772L47.2938 18.484C47.2464 18.4197 47.191 18.3074 47.1449 18.1229L46.1748 18.3654ZM46.4887 19.0772C46.6367 19.278 46.8283 19.4349 47.0632 19.5288L47.4346 18.6004C47.389 18.5821 47.3421 18.5497 47.2938 18.484L46.4887 19.0772ZM47.0632 19.5288C47.2688 19.6111 47.487 19.6487 47.7117 19.6487V18.6487C47.5997 18.6487 47.5094 18.6303 47.4346 18.6004L47.0632 19.5288ZM47.7117 19.6487C47.9363 19.6487 48.1545 19.6111 48.3602 19.5288L47.9888 18.6004C47.914 18.6303 47.8236 18.6487 47.7117 18.6487V19.6487ZM48.3525 19.5318C48.5906 19.4411 48.7889 19.2889 48.9456 19.0904L48.1607 18.4708C48.107 18.5388 48.0529 18.5759 47.9965 18.5974L48.3525 19.5318ZM48.9456 19.0904C49.1075 18.8853 49.2127 18.635 49.2801 18.3654L48.31 18.1229C48.2652 18.3021 48.2092 18.4094 48.1607 18.4708L48.9456 19.0904ZM49.2764 18.3795C49.3561 18.0963 49.3897 17.7666 49.3897 17.4027H48.3897C48.3897 17.7119 48.3603 17.9432 48.3138 18.1088L49.2764 18.3795Z" fill="#4944FF"/>
<path d="M1.06863 31.0405C3.13706 30.8443 5.1172 30.0079 7.18661 29.9105C9.1726 29.817 11.177 29.8529 13.1654 29.8173C16.7847 29.7525 20.4087 29.5363 24.0307 29.4828C26.5758 29.4452 29.1291 29.3007 31.6701 29.1765C33.0143 29.1108 34.4041 29.1044 35.7257 28.8749C36.8203 28.6847 37.9703 28.7465 39.0797 28.6319C40.3286 28.5029 41.5529 28.2634 42.8029 28.1417C45.8257 27.8474 48.8535 27.8106 51.8985 27.7656C54.549 27.7265 57.1555 27.3877 59.7862 27.2188C60.3537 27.1823 60.8642 27.0239 61.424 27.0157C62.2225 27.0039 63.0287 27.0176 63.8258 26.9753C65.1749 26.9039 66.5165 26.8534 67.8733 26.8334" stroke="#7EED9D" stroke-width="2" stroke-linecap="round"/>
<path d="M23.8802 35.6646C24.4668 35.656 25.0349 35.392 25.6238 35.2907C26.6729 35.1103 27.669 35.0071 28.6282 34.5984C29.1896 34.3592 29.8101 34.3067 30.387 34.1276C31.1378 33.8945 31.8908 33.6438 32.6239 33.3789C33.4096 33.095 34.2129 32.8341 35.0155 32.5892C35.8986 32.3198 36.739 31.9047 37.6351 31.6802C39.2507 31.2755 40.7935 30.7926 42.4551 30.4775C43.2073 30.3349 43.9548 30.2003 44.6922 30.0093C45.0168 29.9252 45.3263 29.7506 45.6475 29.6857C46.4901 29.5155 47.1865 29.2026 48.0126 29.0028C48.1702 28.9647 48.5874 29.0108 48.7081 28.9249C48.8593 28.8173 48.835 28.7759 49.0619 28.7649C49.3143 28.7527 49.4168 28.5856 49.7091 28.5813C49.8578 28.5791 50.5769 28.4411 50.6895 28.354C50.9476 28.1545 51.292 28.3288 51.5209 28.1628C51.8899 27.8954 52.8887 27.6639 53.3712 27.6568" stroke="#7EED9D" stroke-width="2" stroke-linecap="round"/>
</svg>
