<svg width="32" height="32" viewBox="0 0 32 32" fill="none" xmlns="http://www.w3.org/2000/svg">
<g clip-path="url(#clip0_152_95)">
<path d="M16.0028 1.33153C17.4828 -0.43347 20.32 0.0753311 21.0945 2.24463V2.24463C21.61 3.68852 23.1367 4.50596 24.6242 4.13457V4.13457C26.859 3.5766 28.8553 5.65591 28.2068 7.86615V7.86615C27.7751 9.33728 28.5297 10.8959 29.9514 11.4698V11.4698C32.0874 12.332 32.4802 15.1876 30.6564 16.5945V16.5945C29.4425 17.531 29.1368 19.2355 29.9497 20.5354V20.5354C31.171 22.4884 29.8103 25.0296 27.5079 25.0958V25.0958C25.9753 25.1399 24.7262 26.3392 24.6197 27.8687V27.8687C24.4598 30.1665 21.8653 31.4226 19.9637 30.1228V30.1228C18.6979 29.2577 16.9824 29.4937 15.9973 30.6685V30.6685C14.5172 32.4335 11.68 31.9247 10.9055 29.7554V29.7554C10.39 28.3115 8.86338 27.494 7.37589 27.8654V27.8654C5.14108 28.4234 3.14477 26.3441 3.79328 24.1338V24.1338C4.22492 22.6627 3.47032 21.1041 2.04862 20.5302V20.5302C-0.0873418 19.668 -0.480196 16.8124 1.3436 15.4055V15.4055C2.55752 14.469 2.86319 12.7645 2.05032 11.4646V11.4646C0.829065 9.51157 2.18972 6.97043 4.49218 6.9042V6.9042C6.02469 6.86011 7.27388 5.66079 7.38033 4.13134V4.13134C7.54026 1.83349 10.1347 0.577433 12.0364 1.8772V1.8772C13.3021 2.74232 15.0177 2.50631 16.0028 1.33153V1.33153Z" fill="#FF622B"/>
<path d="M8.61001 8.41524L8.91901 8.1119L9.97797 8.84126L9.28248 7.75457L9.58107 7.46109L11.007 8.86754L10.7947 9.07545L9.82182 8.12591L10.5881 9.27857L10.4086 9.45519L9.26393 8.66303L10.1978 9.66141L9.98395 9.87101L8.61001 8.41524Z" fill="white"/>
<path d="M11.2508 8.53004C11.1149 8.48479 10.9893 8.37151 10.8733 8.18893L10.4734 7.55817C10.3574 7.37559 10.3092 7.214 10.3267 7.07381C10.3445 6.93264 10.444 6.80573 10.6225 6.69123C10.8007 6.57773 10.9569 6.54281 11.0934 6.58608C11.2289 6.62906 11.3548 6.74134 11.4691 6.92235L11.8707 7.55469C11.9851 7.7357 12.0342 7.89757 12.0168 8.04102C11.9994 8.18447 11.9016 8.31295 11.7234 8.42645C11.544 8.54066 11.3868 8.57528 11.2508 8.53004ZM11.6476 8.04468C11.6425 7.99258 11.6175 7.93143 11.5736 7.86151L11.0666 7.06155C11.0227 6.99163 10.9787 6.94426 10.9334 6.91915C10.8892 6.89433 10.8372 6.89954 10.7789 6.93733C10.7209 6.97414 10.6938 7.01894 10.6972 7.06946C10.7016 7.12027 10.7256 7.18113 10.7695 7.25106L11.2765 8.05101C11.3211 8.12222 11.3659 8.17087 11.4108 8.19697C11.4545 8.22377 11.5067 8.21757 11.5673 8.17936C11.6253 8.14256 11.6524 8.09776 11.6476 8.04468Z" fill="white"/>
<path d="M11.7093 6.10369L11.9732 5.9981L12.7701 6.80128L12.3865 5.833L12.7015 5.70687L13.4409 7.56963L13.1857 7.67131L12.3641 6.80598L12.7724 7.8364L12.449 7.96546L11.7093 6.10369Z" fill="white"/>
<path d="M13.313 5.53208L14.1657 5.34732L14.2254 5.62317L13.7689 5.72288L13.8804 6.24319L14.2333 6.16695L14.2934 6.44507L13.9404 6.52132L14.0725 7.13594L14.5334 7.03541L14.5913 7.30642L13.7338 7.493L13.313 5.53208Z" fill="white"/>
<path d="M15.021 6.47123L14.5628 5.28516L14.9451 5.26273L15.1992 5.95514L15.3566 5.23919L15.7291 5.21712L15.413 6.44842L15.4581 7.24209L15.0662 7.2649L15.021 6.47123Z" fill="white"/>
<path d="M17.0795 5.31823L17.5771 5.4222C17.7672 5.46183 17.9072 5.5298 17.9963 5.62483C18.0854 5.71986 18.1108 5.864 18.0703 6.05667C18.0458 6.17326 18.0023 6.25952 17.9394 6.31644C17.8766 6.37335 17.7967 6.40052 17.702 6.39751C17.8127 6.4375 17.8887 6.50393 17.9292 6.59653C17.9696 6.68913 17.9751 6.80591 17.9455 6.94687C17.865 7.33122 17.6344 7.48426 17.2541 7.405L16.6686 7.28276L17.0795 5.31823ZM17.2376 7.1063C17.3348 7.12619 17.4075 7.11629 17.4569 7.07589C17.5063 7.03549 17.5425 6.96322 17.5649 6.85782C17.5885 6.74421 17.5845 6.65907 17.5541 6.60171C17.5237 6.54435 17.4591 6.50494 17.3599 6.48446L17.2538 6.46195L17.1243 7.08275L17.2376 7.1063ZM17.4113 6.21427C17.5085 6.23417 17.5783 6.22666 17.6233 6.19034C17.6683 6.15402 17.7005 6.08812 17.7199 5.99263C17.738 5.90536 17.7288 5.83807 17.6912 5.79045C17.6537 5.74284 17.5883 5.70966 17.4923 5.68906L17.4175 5.67356L17.3091 6.19292L17.4113 6.21427Z" fill="white"/>
<path d="M19.0767 5.85673L19.4942 6.02871L19.0862 8.0307L18.7388 7.88682L18.8387 7.4511L18.5466 7.33097L18.3078 7.70979L17.9535 7.56388L19.0767 5.85673ZM18.8987 7.2028L19.0948 6.40993L18.6777 7.11106L18.8987 7.2028Z" fill="white"/>
<path d="M19.4023 8.05118C19.389 7.90627 19.4412 7.74289 19.5569 7.56048L19.9429 6.95462C20.062 6.76783 20.1886 6.65103 20.3238 6.6035C20.459 6.55597 20.6167 6.5893 20.7965 6.70447C20.9683 6.81406 21.0638 6.93466 21.0815 7.06471C21.0992 7.19476 21.058 7.33877 20.9573 7.49546L20.8662 7.63774L20.5336 7.42501L20.6333 7.26803C20.6651 7.21815 20.6884 7.17546 20.7035 7.14222C20.7176 7.10869 20.722 7.07552 20.7146 7.04214C20.7072 7.00876 20.6827 6.97896 20.641 6.95274C20.5787 6.91291 20.5256 6.90705 20.4817 6.93614C20.4377 6.96523 20.3911 7.01827 20.3413 7.09627L19.851 7.86418C19.8007 7.94416 19.773 8.00924 19.7694 8.06199C19.7647 8.11444 19.7914 8.15887 19.8484 8.19497C19.9061 8.23235 19.9565 8.23636 19.9982 8.20768C20.0399 8.179 20.0858 8.12467 20.1353 8.04767L20.2406 7.88264L20.5731 8.09537L20.4839 8.23497C20.3807 8.39632 20.266 8.49831 20.1385 8.54163C20.0109 8.58495 19.8611 8.55068 19.6876 8.43952C19.5108 8.32521 19.4156 8.1961 19.4023 8.05118Z" fill="white"/>
<path d="M21.7356 7.40737L22.031 7.68455L21.4542 8.3044L22.2964 7.93247L22.5853 8.20238L21.6967 8.6048L21.2401 9.6894L20.9386 9.40722L21.3238 8.54063L21.2011 8.57462L20.6651 9.15046L20.3697 8.87328L21.7356 7.40737Z" fill="white"/>
<path d="M10.8157 23.8564L11.1414 24.1142L10.5765 25.2156L11.5242 24.4168L11.8388 24.6651L10.6769 26.1998L10.4541 26.023L11.2377 24.9768L10.2363 25.8513L10.0462 25.7008L10.6596 24.5104L9.82513 25.5254L9.59964 25.347L10.8157 23.8564Z" fill="white"/>
<path d="M11.3304 26.4237C11.2997 26.2893 11.3293 26.1284 11.421 25.9422L11.7369 25.2973C11.8286 25.1112 11.9355 24.9902 12.0599 24.9339C12.1841 24.8785 12.3372 24.8952 12.5201 24.9853C12.7021 25.0743 12.8086 25.1854 12.8405 25.3191C12.8724 25.4527 12.8441 25.6119 12.7529 25.7961L12.4356 26.4428C12.3451 26.6282 12.2372 26.7489 12.1104 26.8068C11.9849 26.8639 11.8306 26.8479 11.6494 26.7592C11.4683 26.6705 11.3611 26.5581 11.3304 26.4237ZM11.9244 26.5061C11.9645 26.4752 12.0027 26.4246 12.0371 26.3539L12.4377 25.5365C12.4723 25.4649 12.4894 25.4047 12.4878 25.3557C12.4862 25.3066 12.4562 25.2677 12.3959 25.2375C12.3365 25.2085 12.287 25.2079 12.2474 25.2369C12.2078 25.2659 12.1708 25.3158 12.1352 25.3872L11.7346 26.2045C11.6987 26.2769 11.6815 26.3381 11.6819 26.3879C11.6823 26.4377 11.7131 26.4778 11.7735 26.507C11.8338 26.5373 11.8844 26.537 11.9244 26.5061Z" fill="white"/>
<path d="M13.1815 25.3134L13.4442 25.3852L13.5941 26.4632L13.8568 25.4975L14.1702 25.5822L13.6656 27.4411L13.4115 27.3721L13.2789 26.232L12.9998 27.2601L12.6769 27.1723L13.1815 25.3134Z" fill="white"/>
<path d="M14.3868 25.6097L15.2201 25.6888L15.1943 25.9591L14.7483 25.9168L14.6994 26.4255L15.0443 26.4582L15.018 26.7305L14.6731 26.6978L14.6154 27.2989L15.0662 27.3423L15.0404 27.6075L14.2021 27.5273L14.3868 25.6097Z" fill="white"/>
<path d="M15.6863 26.8339L15.2406 25.6973L15.6076 25.6739L15.8551 26.3368L16.0024 25.6484L16.3601 25.6261L16.0627 26.8095L16.1099 27.5712L15.7338 27.5946L15.6863 26.8339Z" fill="white"/>
<path d="M17.0261 25.4917L17.4882 25.3326C17.665 25.2723 17.8135 25.2587 17.9334 25.2937C18.0542 25.3288 18.1445 25.4355 18.2052 25.6139C18.2415 25.7221 18.2479 25.8148 18.224 25.8928C18.1991 25.9706 18.1476 26.0315 18.0672 26.076C18.178 26.0543 18.2734 26.0718 18.3522 26.1283C18.431 26.1849 18.4928 26.2783 18.5364 26.4094C18.6577 26.7662 18.5425 27.005 18.1897 27.1268L17.6469 27.3131L17.0261 25.4917ZM17.7392 26.0683C17.8287 26.0378 17.8832 25.9958 17.9024 25.9442C17.9217 25.8926 17.9156 25.8223 17.8861 25.7338C17.8581 25.6527 17.8173 25.6023 17.7643 25.5808C17.7102 25.56 17.6393 25.565 17.551 25.5947L17.4812 25.6182L17.6454 26.0998L17.7392 26.0683ZM18.0324 26.89C18.122 26.8587 18.178 26.8149 18.1984 26.7575C18.2199 26.7002 18.2133 26.6227 18.1807 26.5255C18.1447 26.4203 18.0998 26.3518 18.0462 26.319C17.9926 26.2861 17.9199 26.2857 17.8292 26.3169L17.731 26.3505L17.9275 26.9263L18.0324 26.89Z" fill="white"/>
<path d="M18.4643 24.9182L18.8415 24.7023L20.1136 26.1904L19.8009 26.3695L19.5297 26.0372L19.2656 26.1882L19.4101 26.5925L19.0906 26.7752L18.4643 24.9182ZM19.3768 25.846L18.8935 25.2307L19.1772 25.9602L19.3768 25.846Z" fill="white"/>
<path d="M20.4555 25.7621C20.3193 25.7327 20.1848 25.6388 20.0521 25.4804L19.6095 24.953C19.4736 24.7909 19.4028 24.6407 19.3981 24.5028C19.3935 24.3649 19.469 24.23 19.6272 24.0968C19.7769 23.9698 19.9146 23.9173 20.0386 23.9379C20.1626 23.9586 20.2819 24.038 20.3972 24.1744L20.5009 24.2982L20.2106 24.5429L20.0963 24.4068C20.0592 24.3633 20.0279 24.3302 20.0017 24.3063C19.9753 24.2833 19.9458 24.2699 19.9129 24.2679C19.8811 24.2651 19.8468 24.279 19.8099 24.3096C19.7554 24.3556 19.7351 24.403 19.7489 24.4516C19.7627 24.5002 19.7977 24.5585 19.8548 24.6265L20.4166 25.2952C20.4745 25.3645 20.5267 25.4082 20.5734 25.4264C20.62 25.4446 20.6679 25.4336 20.7174 25.3915C20.7681 25.3487 20.7868 25.304 20.7716 25.2571C20.7574 25.2105 20.7213 25.153 20.6641 25.0849L20.5434 24.9412L20.8338 24.6965L20.936 24.8179C21.0543 24.959 21.1143 25.0936 21.1169 25.222C21.1194 25.3513 21.0453 25.4794 20.8944 25.6071C20.7372 25.7406 20.5918 25.7914 20.4555 25.7621Z" fill="white"/>
<path d="M20.1595 23.6536L20.4066 23.3519L21.0337 23.8673L20.6275 23.082L20.8678 22.788L21.3063 23.6157L22.3703 23.9859L22.1191 24.2929L21.2678 23.9776L21.3075 24.0937L21.89 24.5721L21.643 24.8739L20.1595 23.6536Z" fill="white"/>
<path d="M11.8271 17.7954L11.8271 18.4186L9.32836 18.4186L9.32836 17.7954L10.2124 17.7954L10.2124 15.358C10.2124 15.3048 10.2135 15.2506 10.2155 15.1953C10.2176 15.1401 10.2206 15.0838 10.2247 15.0265L9.64147 15.5115C9.60054 15.5422 9.56063 15.5616 9.52175 15.5698C9.48287 15.578 9.44603 15.579 9.41124 15.5729C9.37645 15.5647 9.34575 15.5524 9.31915 15.5361C9.29254 15.5176 9.27208 15.4992 9.25775 15.4808L8.99068 15.1216L10.3598 13.9613L11.0566 13.9613L11.0566 17.7954L11.8271 17.7954ZM15.4899 16.1899C15.4899 16.5788 15.4479 16.9164 15.364 17.203C15.2801 17.4895 15.1645 17.7269 15.0171 17.9151C14.8698 18.1014 14.6948 18.2405 14.4922 18.3326C14.2916 18.4227 14.0747 18.4677 13.8414 18.4677C13.6081 18.4677 13.3912 18.4227 13.1906 18.3326C12.99 18.2405 12.8171 18.1014 12.6718 17.9151C12.5265 17.7269 12.4119 17.4895 12.328 17.203C12.2461 16.9164 12.2052 16.5788 12.2052 16.1899C12.2052 15.8011 12.2461 15.4644 12.328 15.18C12.4119 14.8935 12.5265 14.6571 12.6718 14.4709C12.8171 14.2826 12.99 14.1434 13.1906 14.0534C13.3912 13.9613 13.6081 13.9152 13.8414 13.9152C14.0747 13.9152 14.2916 13.9613 14.4922 14.0534C14.6948 14.1434 14.8698 14.2826 15.0171 14.4709C15.1645 14.6571 15.2801 14.8935 15.364 15.18C15.4479 15.4644 15.4899 15.8011 15.4899 16.1899ZM14.615 16.1899C14.615 15.8748 14.5925 15.6149 14.5474 15.4102C14.5045 15.2056 14.4472 15.0439 14.3755 14.9252C14.3039 14.8065 14.221 14.7236 14.1269 14.6765C14.0348 14.6295 13.9396 14.6059 13.8414 14.6059C13.7432 14.6059 13.648 14.6295 13.5559 14.6765C13.4659 14.7236 13.385 14.8065 13.3134 14.9252C13.2438 15.0439 13.1875 15.2056 13.1446 15.4102C13.1016 15.6149 13.0801 15.8748 13.0801 16.1899C13.0801 16.5071 13.1016 16.7681 13.1446 16.9727C13.1875 17.1774 13.2438 17.339 13.3134 17.4577C13.385 17.5764 13.4659 17.6593 13.5559 17.7064C13.648 17.7535 13.7432 17.777 13.8414 17.777C13.9396 17.777 14.0348 17.7535 14.1269 17.7064C14.221 17.6593 14.3039 17.5764 14.3755 17.4577C14.4472 17.339 14.5045 17.1774 14.5474 16.9727C14.5925 16.7681 14.615 16.5071 14.615 16.1899ZM18.9285 16.1899C18.9285 16.5788 18.8865 16.9164 18.8026 17.203C18.7187 17.4895 18.6031 17.7269 18.4557 17.9151C18.3084 18.1014 18.1334 18.2405 17.9308 18.3326C17.7302 18.4227 17.5133 18.4677 17.28 18.4677C17.0467 18.4677 16.8298 18.4227 16.6292 18.3326C16.4287 18.2405 16.2557 18.1014 16.1104 17.9151C15.9651 17.7269 15.8505 17.4895 15.7666 17.203C15.6848 16.9164 15.6438 16.5788 15.6438 16.1899C15.6438 15.8011 15.6848 15.4644 15.7666 15.18C15.8505 14.8935 15.9651 14.6571 16.1104 14.4709C16.2557 14.2826 16.4287 14.1434 16.6292 14.0534C16.8298 13.9613 17.0467 13.9152 17.28 13.9152C17.5133 13.9152 17.7302 13.9613 17.9308 14.0534C18.1334 14.1434 18.3084 14.2826 18.4557 14.4709C18.6031 14.6571 18.7187 14.8935 18.8026 15.18C18.8865 15.4644 18.9285 15.8011 18.9285 16.1899ZM18.0536 16.1899C18.0536 15.8748 18.0311 15.6149 17.9861 15.4102C17.9431 15.2056 17.8858 15.0439 17.8142 14.9252C17.7425 14.8065 17.6596 14.7236 17.5655 14.6765C17.4734 14.6295 17.3782 14.6059 17.28 14.6059C17.1818 14.6059 17.0866 14.6295 16.9945 14.6765C16.9045 14.7236 16.8236 14.8065 16.752 14.9252C16.6824 15.0439 16.6262 15.2056 16.5832 15.4102C16.5402 15.6149 16.5187 15.8748 16.5187 16.1899C16.5187 16.5071 16.5402 16.7681 16.5832 16.9727C16.6262 17.1774 16.6824 17.339 16.752 17.4577C16.8236 17.5764 16.9045 17.6593 16.9945 17.7064C17.0866 17.7535 17.1818 17.777 17.28 17.777C17.3782 17.777 17.4734 17.7535 17.5655 17.7064C17.6596 17.6593 17.7425 17.5764 17.8142 17.4577C17.8858 17.339 17.9431 17.1774 17.9861 16.9727C18.0311 16.7681 18.0536 16.5071 18.0536 16.1899ZM21.262 15.0418C21.262 15.2076 21.2333 15.358 21.176 15.4931C21.1187 15.6282 21.041 15.7448 20.9427 15.843C20.8465 15.9392 20.735 16.0139 20.6081 16.0671C20.4812 16.1183 20.3492 16.1439 20.2121 16.1439C20.0607 16.1439 19.9215 16.1183 19.7946 16.0671C19.6677 16.0139 19.5572 15.9392 19.4631 15.843C19.371 15.7448 19.2984 15.6282 19.2451 15.4931C19.194 15.358 19.1684 15.2076 19.1684 15.0418C19.1684 14.8699 19.194 14.7154 19.2451 14.5783C19.2984 14.4391 19.371 14.3215 19.4631 14.2253C19.5572 14.127 19.6677 14.0513 19.7946 13.9981C19.9215 13.9449 20.0607 13.9183 20.2121 13.9183C20.3636 13.9183 20.5037 13.9449 20.6327 13.9981C20.7616 14.0513 20.8721 14.127 20.9642 14.2253C21.0584 14.3215 21.131 14.4391 21.1822 14.5783C21.2354 14.7154 21.262 14.8699 21.262 15.0418ZM20.6112 15.0418C20.6112 14.9313 20.601 14.8392 20.5805 14.7656C20.56 14.6898 20.5314 14.6295 20.4945 14.5844C20.4597 14.5394 20.4178 14.5077 20.3687 14.4893C20.3196 14.4688 20.2674 14.4586 20.2121 14.4586C20.1569 14.4586 20.1047 14.4688 20.0556 14.4893C20.0085 14.5077 19.9676 14.5394 19.9328 14.5844C19.9 14.6295 19.8734 14.6898 19.853 14.7656C19.8345 14.8392 19.8253 14.9313 19.8253 15.0418C19.8253 15.1503 19.8345 15.2403 19.853 15.312C19.8734 15.3836 19.9 15.4419 19.9328 15.487C19.9676 15.5299 20.0085 15.5606 20.0556 15.579C20.1047 15.5975 20.1569 15.6067 20.2121 15.6067C20.2674 15.6067 20.3196 15.5975 20.3687 15.579C20.4178 15.5606 20.4597 15.5299 20.4945 15.487C20.5314 15.4419 20.56 15.3836 20.5805 15.312C20.601 15.2403 20.6112 15.1503 20.6112 15.0418ZM22.7048 14.0933C22.7334 14.0605 22.7672 14.0309 22.8061 14.0043C22.847 13.9776 22.9033 13.9643 22.9749 13.9643L23.5919 13.9643L20.2612 18.2958C20.2326 18.3306 20.1978 18.3603 20.1569 18.3848C20.1159 18.4073 20.0658 18.4186 20.0064 18.4186L19.3771 18.4186L22.7048 14.0933ZM23.7976 17.3718C23.7976 17.5376 23.769 17.688 23.7117 17.823C23.6544 17.9581 23.5766 18.0748 23.4784 18.173C23.3822 18.2692 23.2706 18.3439 23.1437 18.3971C23.0169 18.4483 22.8849 18.4738 22.7477 18.4738C22.5963 18.4738 22.4571 18.4483 22.3303 18.3971C22.2034 18.3439 22.0929 18.2692 21.9987 18.173C21.9066 18.0748 21.834 17.9581 21.7808 17.823C21.7296 17.688 21.704 17.5376 21.704 17.3718C21.704 17.1999 21.7296 17.0454 21.7808 16.9083C21.834 16.7691 21.9066 16.6514 21.9987 16.5552C22.0929 16.457 22.2034 16.3823 22.3303 16.3311C22.4571 16.2779 22.5963 16.2513 22.7477 16.2513C22.8992 16.2513 23.0394 16.2779 23.1683 16.3311C23.2972 16.3823 23.4077 16.457 23.4998 16.5552C23.594 16.6514 23.6666 16.7691 23.7178 16.9083C23.771 17.0454 23.7976 17.1999 23.7976 17.3718ZM23.1468 17.3718C23.1468 17.2613 23.1366 17.1692 23.1161 17.0955C23.0957 17.0198 23.067 16.9594 23.0302 16.9144C22.9954 16.8694 22.9534 16.8376 22.9043 16.8192C22.8552 16.7988 22.803 16.7885 22.7477 16.7885C22.6925 16.7885 22.6403 16.7988 22.5912 16.8192C22.5441 16.8376 22.5032 16.8694 22.4684 16.9144C22.4357 16.9594 22.4091 17.0198 22.3886 17.0955C22.3702 17.1692 22.361 17.2613 22.361 17.3718C22.361 17.4803 22.3702 17.5703 22.3886 17.6419C22.4091 17.7136 22.4357 17.7719 22.4684 17.8169C22.5032 17.8599 22.5441 17.8906 22.5912 17.909C22.6403 17.9274 22.6925 17.9366 22.7477 17.9366C22.803 17.9366 22.8552 17.9274 22.9043 17.909C22.9534 17.8906 22.9954 17.8599 23.0302 17.8169C23.067 17.7719 23.0957 17.7136 23.1161 17.6419C23.1366 17.5703 23.1468 17.4803 23.1468 17.3718Z" fill="white"/>
<path d="M6.30232 13.4419C5.4496 14.6357 4.25581 17.7396 6.30232 20.6047" stroke="#F5F5F5" stroke-width="0.306977"/>
<path d="M25.6977 13.4419C26.5504 14.4652 27.7442 17.3303 25.6977 20.6047" stroke="#F5F5F5" stroke-width="0.306977"/>
</g>
<defs>
<clipPath id="clip0_152_95">
<rect width="32" height="32" fill="white"/>
</clipPath>
</defs>
</svg>
