<?xml version="1.0" encoding="utf-8"?>
<!-- Generator: Adobe Illustrator 24.0.1, SVG Export Plug-In . SVG Version: 6.00 Build 0)  -->
<svg version="1.1" id="Layer_1" xmlns="http://www.w3.org/2000/svg" xmlns:xlink="http://www.w3.org/1999/xlink" x="0px" y="0px"
	 width="51px" height="25px" viewBox="0 0 51 25" style="enable-background:new 0 0 51 25;" xml:space="preserve">
<style type="text/css">
	.st0{fill:#DEE5F2;}
	.st1{fill:#869AC1;}
	.st2{fill:#F6366A;}
</style>
<path class="st0" d="M21,25H4c-2.2,0-4-1.8-4-4V4c0-2.2,1.8-4,4-4h17c2.2,0,4,1.8,4,4v17C25,23.2,23.2,25,21,25z"/>
<path class="st0" d="M47,25H30c-2.2,0-4-1.8-4-4V4c0-2.2,1.8-4,4-4h17c2.2,0,4,1.8,4,4v17C51,23.2,49.2,25,47,25z"/>
<path class="st1" d="M12.5,6C8.9,6,6,8.9,6,12.5S8.9,19,12.5,19s6.5-2.9,6.5-6.5S16.1,6,12.5,6z M7.3,12.5c0-2.9,2.4-5.2,5.2-5.2
	c1.2,0,2.3,0.4,3.2,1.1l-7.3,7.3C7.7,14.8,7.3,13.7,7.3,12.5z M12.5,17.7c-1.2,0-2.3-0.4-3.2-1.1l7.4-7.4c0.7,0.9,1.1,2,1.1,3.2
	C17.7,15.4,15.4,17.7,12.5,17.7z"/>
<path class="st2" d="M38.5,6C34.9,6,32,8.9,32,12.5s2.9,6.5,6.5,6.5s6.5-2.9,6.5-6.5S42.1,6,38.5,6z M33.3,12.5
	c0-2.9,2.4-5.2,5.2-5.2c1.2,0,2.3,0.4,3.2,1.1l-7.4,7.4C33.7,14.8,33.3,13.7,33.3,12.5z M38.5,17.7c-1.2,0-2.3-0.4-3.2-1.1l7.4-7.4
	c0.7,0.9,1.1,2,1.1,3.2C43.7,15.4,41.4,17.7,38.5,17.7z"/>
</svg>
