<svg width="32" height="32" viewBox="0 0 32 32" fill="none" xmlns="http://www.w3.org/2000/svg">
<path d="M16 2C8.26875 2 2 8.26875 2 16C2 23.7312 8.26875 30 16 30C23.7312 30 30 23.7312 30 16C30 8.26875 23.7312 2 16 2ZM16 24.125C15.3094 24.125 14.75 23.5656 14.75 22.875C14.75 22.1844 15.3094 21.625 16 21.625C16.6906 21.625 17.25 22.1844 17.25 22.875C17.25 23.5656 16.6906 24.125 16 24.125ZM17.9656 17.2656C17.6826 17.3749 17.4391 17.5669 17.2669 17.8167C17.0946 18.0664 17.0016 18.3623 17 18.6656V19.375C17 19.5125 16.8875 19.625 16.75 19.625H15.25C15.1125 19.625 15 19.5125 15 19.375V18.7031C15 17.9812 15.2094 17.2687 15.6219 16.675C16.025 16.0937 16.5875 15.65 17.25 15.3969C18.3125 14.9875 19 14.0969 19 13.125C19 11.7469 17.6531 10.625 16 10.625C14.3469 10.625 13 11.7469 13 13.125V13.3625C13 13.5 12.8875 13.6125 12.75 13.6125H11.25C11.1125 13.6125 11 13.5 11 13.3625V13.125C11 11.8969 11.5375 10.75 12.5125 9.89688C13.45 9.075 14.6875 8.625 16 8.625C17.3125 8.625 18.55 9.07813 19.4875 9.89688C20.4625 10.75 21 11.8969 21 13.125C21 14.9312 19.8094 16.5562 17.9656 17.2656Z" fill="#29C3FF"/>
</svg>
