<?xml version="1.0" encoding="utf-8"?>
<!-- Generator: Adobe Illustrator 24.0.1, SVG Export Plug-In . SVG Version: 6.00 Build 0)  -->
<svg version="1.1" id="Layer_1" xmlns="http://www.w3.org/2000/svg" xmlns:xlink="http://www.w3.org/1999/xlink" x="0px" y="0px"
	 width="51px" height="25px" viewBox="0 0 51 25" style="enable-background:new 0 0 51 25;" xml:space="preserve">
<style type="text/css">
	.st0{fill:#DEE5F2;}
	.st1{fill:#0795FF;}
	.st2{fill:#869AC1;}
</style>
<path class="st0" d="M47,25H30c-2.2,0-4-1.8-4-4V4c0-2.2,1.8-4,4-4h17c2.2,0,4,1.8,4,4v17C51,23.2,49.2,25,47,25z"/>
<g>
	<path class="st1" d="M42.4,12c-1-0.9-2.4-1.5-3.9-1.5c-1,0-1.9,0.2-2.7,0.7V8c0-1.3,1.2-2.4,2.7-2.4h0.1c1.5,0,2.7,1.1,2.7,2.4v1.3
		h1.2V8c0-1.9-1.8-3.5-3.9-3.5h-0.1c-2.2,0-3.9,1.6-3.9,3.5v4c-1.1,1-1.6,2.2-1.6,3.5c0,2.7,2.5,5,5.5,5s5.5-2.2,5.5-5
		C44,14.2,43.4,13,42.4,12z M38.5,19.4c-1.7,0-3.2-0.9-3.8-2.2c0-0.1-0.1-0.1-0.1-0.2c-0.2-0.5-0.3-1-0.3-1.5s0.1-1,0.3-1.5
		c0.2-0.5,0.5-0.9,0.9-1.2c0.1-0.1,0.2-0.2,0.3-0.2c0.8-0.6,1.7-0.9,2.7-0.9c1.1,0,2.2,0.4,3,1.1s1.3,1.7,1.3,2.7
		C42.8,17.7,40.9,19.4,38.5,19.4z"/>
	<path class="st1" d="M38.6,13.2c-0.9,0-1.6,0.7-1.6,1.5c0,0.6,0.4,1.2,1,1.4v0.1v1.1v0.9h1.2v-0.9v-1.1v-0.1c0.6-0.2,1-0.8,1-1.4
		C40.2,13.8,39.5,13.2,38.6,13.2z M38.6,15.1c-0.2,0-0.4-0.2-0.4-0.4s0.2-0.4,0.4-0.4c0.2,0,0.4,0.1,0.4,0.4
		C39,14.9,38.8,15.1,38.6,15.1z"/>
</g>
<path class="st0" d="M21,25H4c-2.2,0-4-1.8-4-4V4c0-2.2,1.8-4,4-4h17c2.2,0,4,1.8,4,4v17C25,23.2,23.2,25,21,25z"/>
<g>
	<path class="st2" d="M16.4,12c-1-0.9-2.4-1.4-3.9-1.4c-1,0-1.9,0.2-2.7,0.7V8c0-1.3,1.2-2.4,2.7-2.4h0.1c1.5,0,2.7,1.1,2.7,2.4v1.3
		h1.2V8c0-1.9-1.8-3.5-4-3.5l0,0c-2.2,0-4,1.6-4,3.5v4c-1,1-1.5,2.2-1.5,3.5c0,2.7,2.5,5,5.5,5s5.5-2.2,5.5-5
		C18,14.2,17.4,13,16.4,12z M12.5,19.4c-1.7,0-3.2-0.9-3.8-2.2c0-0.1-0.1-0.1-0.1-0.2c-0.2-0.5-0.3-1-0.3-1.5s0.1-1,0.3-1.5
		c0.2-0.5,0.5-0.9,0.9-1.2c0.1-0.1,0.2-0.2,0.3-0.2c0.8-0.6,1.7-0.9,2.7-0.9c1.1,0,2.2,0.4,3,1.1c0.8,0.7,1.3,1.7,1.3,2.7
		C16.8,17.7,14.9,19.4,12.5,19.4z"/>
	<path class="st2" d="M12.6,13.2c-0.9,0-1.6,0.6-1.6,1.5c0,0.6,0.4,1.2,1,1.4v0.1v1.1v0.9h1.2v-0.9v-1.1v-0.1c0.6-0.2,1-0.8,1-1.4
		C14.2,13.8,13.5,13.2,12.6,13.2z M12.6,15.1c-0.2,0-0.4-0.2-0.4-0.4s0.2-0.4,0.4-0.4c0.2,0,0.4,0.1,0.4,0.4
		C13,14.9,12.8,15.1,12.6,15.1z"/>
</g>
</svg>
