<?xml version="1.0" encoding="utf-8"?>
<!-- Generator: Adobe Illustrator 24.0.1, SVG Export Plug-In . SVG Version: 6.00 Build 0)  -->
<svg version="1.1" id="Layer_1" xmlns="http://www.w3.org/2000/svg" xmlns:xlink="http://www.w3.org/1999/xlink" x="0px" y="0px"
	 width="51px" height="25px" viewBox="0 0 51 25" style="enable-background:new 0 0 51 25;" xml:space="preserve">
<style type="text/css">
	.st0{fill:#DEE5F2;}
	.st1{fill:#869AC1;}
	.st2{fill:#7FC22B;}
</style>
<path class="st0" d="M21,25H4c-2.2,0-4-1.8-4-4V4c0-2.2,1.8-4,4-4h17c2.2,0,4,1.8,4,4v17C25,23.2,23.2,25,21,25z"/>
<path class="st0" d="M47,25H30c-2.2,0-4-1.8-4-4V4c0-2.2,1.8-4,4-4h17c2.2,0,4,1.8,4,4v17C51,23.2,49.2,25,47,25z"/>
<path class="st1" d="M13.3,9.3C13.5,9.1,13.7,9,13.9,9c0.2,0,0.4,0.1,0.6,0.2c0.2,0.1,0.2,0.3,0.2,0.6c0,0.2-0.1,0.4-0.2,0.6
	l-4.3,5.3c0,0.1-0.1,0.2-0.2,0.2C9.9,16,9.8,16,9.7,16c-0.1,0-0.3,0-0.4-0.1c-0.1,0-0.2-0.1-0.3-0.2l-2.7-2.8
	c-0.1-0.1-0.2-0.1-0.2-0.2C6,12.6,6,12.5,6,12.3c0-0.1,0-0.2,0.1-0.3c0-0.1,0.1-0.2,0.2-0.3c0.1-0.1,0.2-0.1,0.3-0.2
	c0.1,0,0.2-0.1,0.3-0.1s0.2,0,0.3,0.1c0.1,0,0.2,0.1,0.3,0.2L9.6,14L13.3,9.3L13.3,9.3z M12.4,14.8l1,1c0.1,0.1,0.2,0.1,0.3,0.2
	c0.1,0.1,0.1,0,0.2,0s0.2,0,0.3-0.1c0.1,0,0.2-0.1,0.3-0.2l4.3-5.4c0.1-0.1,0.1-0.2,0.2-0.3c0,0,0-0.1,0-0.2c0-0.1,0-0.2-0.1-0.3
	c0-0.1-0.1-0.2-0.2-0.3c-0.1-0.1-0.2-0.1-0.3-0.2c-0.1,0-0.2-0.1-0.3,0c-0.1,0-0.2,0-0.3,0.1c-0.1,0-0.2,0.1-0.3,0.2L13.9,14
	l-0.5-0.5L12.4,14.8L12.4,14.8z"/>
<path class="st2" d="M39.3,9.3C39.5,9.1,39.7,9,39.9,9c0.2,0,0.4,0.1,0.6,0.2c0.2,0.1,0.2,0.3,0.2,0.6c0,0.2-0.1,0.4-0.2,0.6
	l-4.3,5.4c-0.1,0.1-0.2,0.1-0.3,0.2c0,0-0.1,0-0.2,0c-0.1,0-0.2,0-0.3-0.1c-0.1,0-0.2-0.1-0.3-0.2l-2.8-2.8
	c-0.1-0.1-0.1-0.2-0.2-0.3c-0.1,0-0.1-0.1-0.1-0.3c0-0.1,0-0.2,0.1-0.3c0-0.1,0.1-0.2,0.2-0.3c0.1-0.1,0.2-0.1,0.3-0.2
	c0.1-0.1,0.2-0.1,0.3-0.1c0.1,0,0.2,0,0.3,0.1c0.1,0,0.2,0.1,0.3,0.2l2.1,2.3L39.3,9.3L39.3,9.3z M38.4,14.8l1,1
	c0.1,0.1,0.2,0.1,0.3,0.2c0.1,0.1,0.1,0,0.2,0c0.1,0,0.2,0,0.3-0.1c0.1,0,0.2-0.1,0.3-0.2l4.3-5.4c0.1-0.1,0.1-0.2,0.2-0.3
	c0,0,0-0.1,0-0.2c0-0.1,0-0.2-0.1-0.3c0-0.1-0.1-0.2-0.2-0.3c-0.1-0.1-0.2-0.1-0.3-0.2c-0.1,0-0.2-0.1-0.3,0c-0.1,0-0.2,0-0.3,0.1
	c-0.1,0-0.2,0.1-0.3,0.2L39.9,14l-0.5-0.5L38.4,14.8L38.4,14.8z"/>
</svg>
