<?xml version="1.0" ?><svg data-name="Layer 1" id="Layer_1" viewBox="0 0 128 128" xmlns="http://www.w3.org/2000/svg"><defs><style>.cls-1{fill:#395062;}.cls-2{fill:#1487c5;}</style></defs><title/><path class="cls-1" d="M64,1.5C29.124,1.5.75,29.5376.75,64c0,34.46289,28.374,62.5,63.25,62.5S127.25,98.46289,127.25,64C127.25,29.5376,98.876,1.5,64,1.5Zm0,120C31.88086,121.5,5.75,95.70605,5.75,64,5.75,32.29443,31.88086,6.5,64,6.5S122.25,32.29443,122.25,64C122.25,95.70605,96.11914,121.5,64,121.5Z"/><path class="cls-2" d="M107.75,61.5H66.5V20.25a2.5,2.5,0,0,0-5,0V61.5H20.25a2.5,2.5,0,0,0,0,5H61.5v41.25a2.5,2.5,0,0,0,5,0V66.5h41.25a2.5,2.5,0,0,0,0-5Z"/></svg>