<svg height="21" viewBox="0 0 128 128" width="21" xmlns="http://www.w3.org/2000/svg"><g id="Circle_Grid" data-name="Circle Grid"><circle cx="64" cy="64" fill="#0052CC" r="64"/></g><g id="icon"><g fill="#ffffff"><path d="m77.346 36.384h-26.691v-10.3a4.591 4.591 0 0 1 4.586-4.584h17.518a4.592 4.592 0 0 1 4.587 4.586zm-22.824-3.867h18.957v-6.431a.721.721 0 0 0 -.72-.719h-17.518a.72.72 0 0 0 -.719.719z"/><path d="m92.4 37.512v63.082a5.906 5.906 0 0 1 -5.9 5.906h-44.995a5.906 5.906 0 0 1 -5.905-5.906v-63.082z"/><path d="m36.932 32.356h54.136a4.834 4.834 0 0 1 4.832 4.834v7.09a0 0 0 0 1 0 0h-63.8a0 0 0 0 1 0 0v-7.09a4.834 4.834 0 0 1 4.832-4.834z"/></g><rect fill="#9a9eaf" height="44.793" rx="2.175" width="4.35" x="77.533" y="54.604"/><rect fill="#9a9eaf" height="44.793" rx="2.175" width="4.35" x="61.825" y="54.604"/><rect fill="#9a9eaf" height="44.793" rx="2.175" width="4.35" x="46.117" y="54.604"/><path d="m35.6 44.279h56.801v3.223h-56.801z" fill="#bbbbcd"/></g></svg>