<?xml version="1.0" ?><svg id="Layer_1" style="enable-background:new 0 0 48 48;" width="35px" height="35px" fill="#ffffff" version="1.1" viewBox="0 0 48 48" xml:space="preserve" xmlns="http://www.w3.org/2000/svg" xmlns:xlink="http://www.w3.org/1999/xlink"><path d="M41,6H13c-0.6,0-1,0.4-1,1v4H7c-0.6,0-1,0.4-1,1v29c0,0.6,0.4,1,1,1h28.2c0.6,0,1-0.4,1-1v-4.3H41c0.6,0,1-0.4,1-1V7  C42,6.4,41.6,6,41,6z M34.2,40H8V13h4.9c0,0,0.1,0,0.1,0h21.2v22.7V40z M40,34.7h-3.8V12v0c0-0.6-0.4-1-1-1H14V8h26V34.7z"/></svg>