<?xml version="1.0" ?><!DOCTYPE svg  PUBLIC '-//W3C//DTD SVG 1.1//EN'  'http://www.w3.org/Graphics/SVG/1.1/DTD/svg11.dtd'><svg enable-background="new 0 0 48 48" height="12px" id="Layer_3" version="1.1" viewBox="0 0 48 48" fill="#ffffff" width="16px" xml:space="preserve" xmlns="http://www.w3.org/2000/svg" xmlns:xlink="http://www.w3.org/1999/xlink"><g><path fill="#ffffff" d="M19.367,31.326l1.484-1.484l-2.693-2.694l-1.484,1.486c-0.864-0.572-1.828-0.999-2.858-1.267v-2.22H9.036v2.22   c-1.053,0.272-2.039,0.711-2.917,1.302l-1.425-1.425L2,29.937l1.449,1.449c-0.554,0.849-0.97,1.793-1.23,2.8H0v4.776h2.218   c0.267,1.031,0.694,1.998,1.267,2.862L2,43.309L4.693,46l1.485-1.484c0.866,0.573,1.834,1.002,2.867,1.269V48h4.761v-2.216   c1.01-0.26,1.957-0.678,2.808-1.231l1.544,1.543l2.693-2.691l-1.521-1.522c0.594-0.883,1.034-1.876,1.306-2.934h2.216v-4.747   h-2.216C20.371,33.166,19.943,32.194,19.367,31.326z M11.426,40.491c-2.163,0-3.917-1.754-3.917-3.917s1.754-3.917,3.917-3.917   s3.917,1.754,3.917,3.917S13.589,40.491,11.426,40.491z"/><path d="M38,4V0h-4v4H14V0h-4v4H0v11.9v4v3.809h4V19.9h40V44H24.208v4H48V19.9v-4V4H38z M44,15.9H4V8h6v4h4V8h20v4h4V8h6V15.9z"/></g></svg>