<?xml version="1.0" ?><svg height="40" viewBox="0 0 20 20" width="40" xmlns="http://www.w3.org/2000/svg"><g id="layer1"><path d="M 0 2 L 0 18 L 20 18 L 20 17 L 1 17 L 1 2 L 0 2 z M 3 4 L 3 5 L 18 5 L 18 4 L 3 4 z M 3 6 L 3 7 L 9 7 L 9 6 L 3 6 z M 9 7 L 9 8 L 12 8 L 12 7 L 9 7 z M 12 8 L 12 9 L 18 9 L 18 8 L 12 8 z M 6 11 L 6 12 L 15 12 L 15 11 L 6 11 z M 6 13 L 6 14 L 10 14 L 10 13 L 6 13 z M 10 14 L 10 15 L 15 15 L 15 14 L 10 14 z " style="fill:#ffffff;fill-opacity:1;stroke:none;stroke-width:0px;"/></g></svg>