<?xml version="1.0" ?><svg height="17.998047" id="svg8" version="1.1" viewBox="0 0 5.2067674 4.7619834" width="19.679121" xmlns="http://www.w3.org/2000/svg" xmlns:cc="http://creativecommons.org/ns#" xmlns:dc="http://purl.org/dc/elements/1.1/" xmlns:rdf="http://www.w3.org/1999/02/22-rdf-syntax-ns#" xmlns:svg="http://www.w3.org/2000/svg"><defs id="defs2"/><g id="layer11" transform="translate(-69.59937,-17.713131)"><g id="FLAT-10"><g id="g1470" style="display:inline" transform="translate(7.8207373e-7,-290.64999)"><path d="m 272.05273,66.947266 c -4.95869,0 -9,4.041373 -9,9 0,4.958853 4.04127,8.998046 9,8.998046 3.56397,0 6.65707,-2.075797 8.11133,-5.09375 a 1.0000025,1.0000025 0 0 0 -0.46484,-1.335937 1.0000025,1.0000025 0 0 0 -1.33594,0.464844 c -1.12985,2.344667 -3.52345,3.964843 -6.31055,3.964843 -3.87783,0 -6.99804,-3.120062 -6.99804,-6.998046 0,-3.87772 3.12018,-6.998047 6.99804,-6.998047 3.12652,0 5.75685,2.029393 6.66016,4.847656 l -0.33984,-0.230469 a 1.0000006,1.0000006 0 0 0 -0.78711,-0.15039 1.0000006,1.0000006 0 0 0 -0.60547,0.416015 1.0000006,1.0000006 0 0 0 0.26367,1.384766 l 2.08203,1.416015 0.006,0.0059 a 1.0000025,1.0000025 0 0 0 0.39258,0.25 1.0000006,1.0000006 0 0 0 0.006,0.002 1.0000025,1.0000025 0 0 0 0.0176,0.0059 1.0000006,1.0000006 0 0 0 1.2207,-0.351562 l 1.5918,-2.337891 a 1.0000006,1.0000006 0 0 0 -0.26367,-1.384765 1.0000006,1.0000006 0 0 0 -0.7793,-0.152344 1.0000006,1.0000006 0 0 0 -0.60547,0.414062 l -0.23047,0.335938 c -1.09658,-3.732693 -4.54799,-6.472656 -8.62891,-6.472656 z" id="path1232" style="color:#000000;font-style:normal;font-variant:normal;font-weight:normal;font-stretch:normal;font-size:medium;line-height:normal;font-family:sans-serif;font-variant-ligatures:normal;font-variant-position:normal;font-variant-caps:normal;font-variant-numeric:normal;font-variant-alternates:normal;font-variant-east-asian:normal;font-feature-settings:normal;font-variation-settings:normal;text-indent:0;text-align:start;text-decoration:none;text-decoration-line:none;text-decoration-style:solid;text-decoration-color:#000000;letter-spacing:normal;word-spacing:normal;text-transform:none;writing-mode:lr-tb;direction:ltr;text-orientation:mixed;dominant-baseline:auto;baseline-shift:baseline;text-anchor:start;white-space:normal;shape-padding:0;shape-margin:0;inline-size:0;clip-rule:nonzero;display:inline;overflow:visible;visibility:visible;opacity:1;isolation:auto;mix-blend-mode:normal;color-interpolation:sRGB;color-interpolation-filters:linearRGB;solid-color:#000000;solid-opacity:1;vector-effect:none;fill:#82bbfb;fill-opacity:1;fill-rule:nonzero;stroke:none;stroke-width:2.00001;stroke-linecap:round;stroke-linejoin:round;stroke-miterlimit:4;stroke-dasharray:none;stroke-dashoffset:0;stroke-opacity:1;color-rendering:auto;image-rendering:auto;shape-rendering:auto;text-rendering:auto;enable-background:accumulate;stop-color:#000000;stop-opacity:1" transform="matrix(0.26458334,0,0,0.26458334,-7.8207373e-7,290.64999)"/><g id="g1004" transform="rotate(-10.7537,74.077653,310.55228)"/></g><g id="g1393" style="display:inline" transform="translate(7.8207373e-7,-290.64999)"><path d="m 280.20312,79.074219 a 17.202391,32.202391 69.881832 0 1 -1.39453,0.53125 17.202391,32.202391 69.881832 0 1 -1.04297,0.371093 c -1.26592,1.791598 -3.34346,2.968751 -5.71289,2.96875 -1.08066,0 -2.0979,-0.250097 -3.00976,-0.683593 a 17.202391,32.202391 69.881832 0 1 -2.91797,0.4375 c 1.58574,1.393408 3.65796,2.246094 5.92773,2.246093 3.56397,0 6.65707,-2.075796 8.11133,-5.09375 a 1.0000025,1.0000025 0 0 0 0.0391,-0.777343 z" id="path1388" style="color:#000000;font-style:normal;font-variant:normal;font-weight:normal;font-stretch:normal;font-size:medium;line-height:normal;font-family:sans-serif;font-variant-ligatures:normal;font-variant-position:normal;font-variant-caps:normal;font-variant-numeric:normal;font-variant-alternates:normal;font-variant-east-asian:normal;font-feature-settings:normal;font-variation-settings:normal;text-indent:0;text-align:start;text-decoration:none;text-decoration-line:none;text-decoration-style:solid;text-decoration-color:#000000;letter-spacing:normal;word-spacing:normal;text-transform:none;writing-mode:lr-tb;direction:ltr;text-orientation:mixed;dominant-baseline:auto;baseline-shift:baseline;text-anchor:start;white-space:normal;shape-padding:0;shape-margin:0;inline-size:0;clip-rule:nonzero;display:inline;overflow:visible;visibility:visible;opacity:1;isolation:auto;mix-blend-mode:normal;color-interpolation:sRGB;color-interpolation-filters:linearRGB;solid-color:#000000;solid-opacity:1;vector-effect:none;fill:#65a3fc;fill-opacity:1;fill-rule:nonzero;stroke:none;stroke-width:2.00001;stroke-linecap:round;stroke-linejoin:round;stroke-miterlimit:4;stroke-dasharray:none;stroke-dashoffset:0;stroke-opacity:1;color-rendering:auto;image-rendering:auto;shape-rendering:auto;text-rendering:auto;enable-background:accumulate;stop-color:#000000;stop-opacity:1" transform="matrix(0.26458334,0,0,0.26458334,-7.8207373e-7,290.64999)"/><g id="g1391" transform="rotate(-10.7537,74.077653,310.55228)"/></g></g></g></svg>