<?xml version="1.0" ?><svg width="12px" height="12px" id="Layer_1" fill="#ffffff" style="enable-background:new 0 0 50 50;" version="1.1" viewBox="0 0 50 50" xml:space="preserve" xmlns="http://www.w3.org/2000/svg" xmlns:xlink="http://www.w3.org/1999/xlink"><g id="Layer_1_1_"><path d="M49,1H1v48h48V1z M47,47H3V3h44V47z"/><polygon points="21.707,8.707 20.293,7.293 12,15.586 8.707,12.293 7.293,13.707 12,18.414  "/><rect height="2" width="18" x="25" y="12"/><polygon points="21.707,20.707 20.293,19.293 12,27.586 8.707,24.293 7.293,25.707 12,30.414  "/><rect height="2" width="18" x="25" y="24"/><polygon points="21.707,32.707 20.293,31.293 12,39.586 8.707,36.293 7.293,37.707 12,42.414  "/><rect height="2" width="18" x="25" y="36"/></g></svg>