<?xml version="1.0" ?><svg data-name="Layer 2" fill="#3c763d" width="15px" height="15px" id="a796d662-df88-4f26-a9fb-507639e97414" viewBox="0 0 38 38" xmlns="http://www.w3.org/2000/svg"><path d="M36.711,33.367,28.416,19l-8.3-14.367a1.295,1.295,0,0,0-2.242,0L9.584,19,1.289,33.367A1.3,1.3,0,0,0,2.41,35.309H35.59A1.3,1.3,0,0,0,36.711,33.367Z"/><circle cx="19" cy="29.048" fill="#fff" r="1.523"/><path d="M18.975,25.257h0a.969.969,0,0,1-.969-.929l-.345-7.207A1.34,1.34,0,0,1,19,15.725h0a1.341,1.341,0,0,1,1.339,1.4l-.4,7.2A.969.969,0,0,1,18.975,25.257Z" fill="#fff"/></svg>