<svg width="14" height="14" viewBox="0 0 14 14" fill="none" xmlns="http://www.w3.org/2000/svg">
<path d="M7 0C3.14016 0 0 3.14021 0 7C0 10.8598 3.14016 14 7 14C10.8598 14 14 10.8598 14 7C14 3.14021 10.8598 0 7 0ZM7 12.6452C3.88727 12.6452 1.35483 10.1128 1.35483 7C1.35483 3.88724 3.88727 1.35483 7 1.35483C10.1127 1.35483 12.6452 3.88727 12.6452 7C12.6452 10.1127 10.1127 12.6452 7 12.6452Z" fill="white"/>
<path d="M9.7144 5.2436L8.75639 4.28558L7.00002 6.04195L5.24366 4.28558L4.28564 5.2436L6.04201 6.99996L4.28564 8.75633L5.24366 9.71434L7.00002 7.95798L8.75639 9.71434L9.7144 8.75633L7.95804 6.99996L9.7144 5.2436Z" fill="white"/>
</svg>
