<?xml version="1.0" encoding="utf-8"?>
<!-- Generator: Adobe Illustrator 24.0.1, SVG Export Plug-In . SVG Version: 6.00 Build 0)  -->
<svg version="1.1" id="Layer_1" xmlns="http://www.w3.org/2000/svg" xmlns:xlink="http://www.w3.org/1999/xlink" x="0px" y="0px"
	 width="41px" height="20px" viewBox="0 0 41 20" style="enable-background:new 0 0 41 20;" xml:space="preserve">
<style type="text/css">
	.st0{fill:#869AC1;}
	.st1{fill:#F6366A;}
</style>
<path class="st0" d="M10,0C4.5,0,0,4.5,0,10c0,5.5,4.5,10,10,10c5.5,0,10-4.5,10-10C20,4.5,15.5,0,10,0z M10,18.1
	c-4.4,0-8.1-3.6-8.1-8.1S5.6,1.9,10,1.9c4.4,0,8.1,3.6,8.1,8.1C18.1,14.4,14.4,18.1,10,18.1z"/>
<path class="st0" d="M13.9,7.5l-1.4-1.4L10,8.6L7.5,6.1L6.1,7.5L8.6,10l-2.5,2.5l1.4,1.4l2.5-2.5l2.5,2.5l1.4-1.4L11.4,10L13.9,7.5z
	"/>
<path class="st1" d="M31,0c-5.5,0-10,4.5-10,10c0,5.5,4.5,10,10,10c5.5,0,10-4.5,10-10C41,4.5,36.5,0,31,0z M31,18.1
	c-4.4,0-8.1-3.6-8.1-8.1s3.6-8.1,8.1-8.1c4.4,0,8.1,3.6,8.1,8.1C39.1,14.4,35.4,18.1,31,18.1z"/>
<path class="st1" d="M34.9,7.5l-1.4-1.4L31,8.6l-2.5-2.5l-1.4,1.4l2.5,2.5l-2.5,2.5l1.4,1.4l2.5-2.5l2.5,2.5l1.4-1.4L32.4,10
	L34.9,7.5z"/>
</svg>
