<?xml version="1.0" encoding="utf-8"?>
<!-- Generator: Adobe Illustrator 24.0.1, SVG Export Plug-In . SVG Version: 6.00 Build 0)  -->
<svg version="1.1" id="Layer_1" xmlns="http://www.w3.org/2000/svg" xmlns:xlink="http://www.w3.org/1999/xlink" x="0px" y="0px"
	 width="40px" height="20px" viewBox="0 0 40 20" style="enable-background:new 0 0 40 20;" xml:space="preserve">
<style type="text/css">
	.st0{fill:#869AC1;}
	.st1{fill:#516885;}
</style>
<path class="st0" d="M10,6C8.9,6,8,5.1,8,4s0.9-2,2-2s2,0.9,2,2S11.1,6,10,6z M10,8c1.1,0,2,0.9,2,2s-0.9,2-2,2s-2-0.9-2-2
	S8.9,8,10,8z M10,14c1.1,0,2,0.9,2,2s-0.9,2-2,2s-2-0.9-2-2S8.9,14,10,14z"/>
<path class="st1" d="M30,6c-1.1,0-2-0.9-2-2s0.9-2,2-2s2,0.9,2,2S31.1,6,30,6z M30,8c1.1,0,2,0.9,2,2s-0.9,2-2,2s-2-0.9-2-2
	S28.9,8,30,8z M30,14c1.1,0,2,0.9,2,2s-0.9,2-2,2s-2-0.9-2-2S28.9,14,30,14z"/>
</svg>
