<svg width="14" height="14" viewBox="0 0 14 14" fill="none" xmlns="http://www.w3.org/2000/svg">
<path d="M7 0C3.14016 0 0 3.14021 0 7C0 10.8598 3.14016 14 7 14C10.8598 14 14 10.8598 14 7C14 3.14021 10.8598 0 7 0ZM7 12.6452C3.88727 12.6452 1.35483 10.1128 1.35483 7C1.35483 3.88724 3.88727 1.35483 7 1.35483C10.1127 1.35483 12.6452 3.88727 12.6452 7C12.6452 10.1127 10.1127 12.6452 7 12.6452Z" fill="white"/>
<path d="M9.45616 4.48877L6.09643 7.84847L4.31734 6.06943L3.35938 7.02739L6.09643 9.76447L10.4141 5.44673L9.45616 4.48877Z" fill="white"/>
</svg>
