<?xml version="1.0" encoding="utf-8"?>
<!-- Generator: Adobe Illustrator 24.0.1, SVG Export Plug-In . SVG Version: 6.00 Build 0)  -->
<svg version="1.1" id="Layer_1" xmlns="http://www.w3.org/2000/svg" xmlns:xlink="http://www.w3.org/1999/xlink" x="0px" y="0px"
	 width="14px" height="14px" viewBox="0 0 14 14" style="enable-background:new 0 0 14 14;" xml:space="preserve">
<style type="text/css">
	.st0{fill:#869AC1;}
</style>
<path class="st0" d="M7,0C3.1,0,0,3.1,0,7s3.1,7,7,7s7-3.1,7-7S10.9,0,7,0z M1.4,7c0-3.1,2.5-5.6,5.6-5.6c1.3,0,2.5,0.5,3.5,1.2
	l-7.9,7.9C1.8,9.5,1.4,8.3,1.4,7z M7,12.6c-1.3,0-2.5-0.5-3.5-1.2l7.9-7.9c0.8,1,1.2,2.2,1.2,3.5C12.6,10.1,10.1,12.6,7,12.6z"/>
</svg>
