<?xml version="1.0" encoding="utf-8"?>
<!-- Generator: Adobe Illustrator 24.0.1, SVG Export Plug-In . SVG Version: 6.00 Build 0)  -->
<svg version="1.1" id="Layer_1" xmlns="http://www.w3.org/2000/svg" xmlns:xlink="http://www.w3.org/1999/xlink" x="0px" y="0px"
	 width="14px" height="14px" viewBox="0 0 14 14" style="enable-background:new 0 0 14 14;" xml:space="preserve">
<style type="text/css">
	.st0{fill:#869AC1;}
</style>
<path class="st0" d="M6.2,3.9v3.9l3.3,2l0.6-1L7.4,7.1V3.9H6.2z M14,5.4V0l-2.1,2.1c-0.6-0.7-1.4-1.2-2.3-1.5C8.8,0.2,7.9,0,7,0
	C5.6,0,4.3,0.4,3.1,1.2C2,1.9,1.1,3,0.5,4.3C0,5.6-0.1,7,0.1,8.4C0.4,9.8,1,11,2,12s2.2,1.6,3.6,1.9c1.4,0.3,2.8,0.1,4-0.4
	c1.3-0.5,2.4-1.4,3.1-2.6C13.6,9.7,14,8.4,14,7h-1.6c0,3-2.4,5.4-5.4,5.4S1.6,10,1.6,7S4,1.6,7,1.6c1.5,0,2.9,0.6,3.9,1.6L8.6,5.4
	H14z"/>
</svg>
