<?xml version="1.0" encoding="utf-8"?>
<!-- Generator: Adobe Illustrator 24.0.1, SVG Export Plug-In . SVG Version: 6.00 Build 0)  -->
<svg version="1.1" id="Layer_1" xmlns="http://www.w3.org/2000/svg" xmlns:xlink="http://www.w3.org/1999/xlink" x="0px" y="0px"
	 width="14px" height="14px" viewBox="0 0 14 14" style="enable-background:new 0 0 14 14;" xml:space="preserve">
<style type="text/css">
	.st0{fill:#869AC1;}
</style>
<path class="st0" d="M10,6c0.7-0.7,1.8-2.1,1.8-4V1.4h1.1V0H1.1v1.4h1.1V2c0,1.9,1.1,3.3,1.8,4c0.4,0.4,0.8,0.7,1.2,1
	C4.8,7.3,4.4,7.6,4,8c-0.7,0.7-1.8,2.1-1.8,4v0.7H1.1V14h11.7v-1.4h-1.1V12c0-1.9-1.1-3.3-1.8-4C9.6,7.6,9.2,7.3,8.8,7
	C9.2,6.7,9.6,6.4,10,6z M9,8.9c0.5,0.5,1.4,1.7,1.4,3v0.7H3.6V12c0-1.4,0.9-2.5,1.4-3c0.8-0.9,1.7-1.2,2-1.2C7.3,7.7,8.2,8.1,9,8.9z
	 M7,6.3c-0.3,0-1.2-0.4-2-1.2C4.5,4.5,3.6,3.4,3.6,2V1.4h6.8V2c0,1.4-0.9,2.5-1.4,3C8.2,5.9,7.3,6.3,7,6.3z"/>
</svg>
