<?xml version="1.0" encoding="utf-8"?>
<!-- Generator: Adobe Illustrator 24.0.1, SVG Export Plug-In . SVG Version: 6.00 Build 0)  -->
<svg version="1.1" id="Layer_1" xmlns="http://www.w3.org/2000/svg" xmlns:xlink="http://www.w3.org/1999/xlink" x="0px" y="0px"
	 width="14px" height="11.9px" viewBox="0 0 14 11.9" style="enable-background:new 0 0 14 11.9;" xml:space="preserve">
<style type="text/css">
	.st0{fill:#869AC1;}
</style>
<path class="st0" d="M14,1.1V0l0,0h-1.1H4.1H3l0,0v2.8H0v9.1h12V8.6h0.9H14l0,0l0,0V7.5l0,0V1.1L14,1.1z M10.5,2.8h-4L4.8,1.1h7.4
	L10.5,2.8z M4.1,1.1L4.1,1.1L4.1,1.1L4.1,1.1z M4.1,1.9L5,2.8H4.1V1.9z M10.1,3.9L6,8L1.9,3.9H10.1z M10.9,10.8H1.1V4.7L6,9.6
	l4.9-4.9V10.8z M12,7.5V2.8l0.9-0.9v5.6H12z"/>
</svg>
